<svg id="Layer_1" data-name="Layer 1" xmlns="http://www.w3.org/2000/svg" viewBox="0 0 455.17 336.78"><defs><style>.cls-1,.cls-2{fill:#f9f9fa;}.cls-1{fill-rule:evenodd;}</style></defs><title>logo</title><path class="cls-1" d="M57.77,405.64c9.37-17.2,18.72-34.08,27.85-50.62,8.94-16.23,17.89-32.12,26.6-47.84a36.27,36.27,0,0,1,2.28-3.67c1.13-1.61,2.68-3.7,4.59-6.15.76-1,1.56-1.88,2.32-2.81-.75.73-1.51,1.46-2.31,2.19-1.56,1.42-3,2.66-4.46,3.76a15.2,15.2,0,0,1-3.69,2.29c-10,3.66-19.89,7.42-29.88,11.18,5.51-13.84,11-27.65,16.42-41.24q36-11.36,72-22.08c-7.73,13.64-15.53,27.57-23.4,41.63q-12,21.44-24.36,43.62c-1.47,2.29-2.89,4.53-4.31,6.86-1.72,2.24-3.28,4.35-4.9,6.6.65-.53,1.3-1.11,2-1.62s2.11-1.56,3.85-2.78a23.58,23.58,0,0,1,3.59-2.25c10.2-4.16,20.35-8.28,30.59-12.32-5,12.37-10,24.9-15,37.47-26.34,11.85-52.88,24.32-79.68,37.77Zm83.66-39.52c11.19-4.71,22.43-9.42,33.63-14.05,1.68-4.95,3.37-9.88,5.18-14.92,6.66-2.61,13.33-5.18,19.94-7.67-.12,4.29-.14,8.49-.21,12.7,11.14-4.28,22.23-8.42,33.31-12.52-2-15.42-4-31-5.68-46.72S224.34,251,223,234.76l-29.79,8.83q-12.55,29.78-25.37,60.22C159.22,324.27,150.36,345.13,141.43,366.12Zm60.19-62.29c-4.13,1.41-8.3,2.91-12.43,4.41,3.11-9.14,6.23-18.33,9.34-27.41.72-2.09,1.58-4.25,2.32-6.42.35-1,.61-2.06,1-3.12a30.83,30.83,0,0,0,1.16-4.44c-.34,2.35-.52,4.69-.76,7,0,1.93-.11,3.85-.09,5.81-.23,8.08-.35,16.12-.53,24.19Zm32.49,25.51c2.89-17.13,5.71-34.33,8.57-51.47s5.74-34.33,8.68-51.51c12-3.59,24.14-7.17,36.15-10.74,11-3.27,19.29-1.45,25.27,5.36s8.2,17.28,6.41,31.52a83.07,83.07,0,0,1-13.33,36.59,69.73,69.73,0,0,1-27.37,24.12,53.48,53.48,0,0,1-6.2,2.61q-19.08,6.62-38.16,13.52ZM271,286c.85-.36,1.65-.67,2.54-1.12a23.35,23.35,0,0,0,8.66-7,32.5,32.5,0,0,0,4.92-11.56c.26-1,.48-1.92.59-2.67s.26-1.35.33-1.81c.87-6.08,0-10.25-2.23-12.65-2.11-2.25-4.95-2.86-8.92-1.63l-1.49.47c-1.88,12.79-3.86,25.58-5.75,38.37.4-.07.9-.27,1.35-.39Zm38.62,17.56c10.92-3.33,21.94-6.65,32.91-9.85,1.2-4.31,2.46-8.7,3.71-13.13,6.61-1.88,13.11-3.7,19.71-5.45.33,4,.66,8,1.1,11.89,11-2.79,22-5.54,33.09-8.14-3.72-15.23-7.41-30.41-10.8-45.6s-6.63-30.12-9.75-45.14c-10,2.93-20,5.9-29.9,8.83-6.46,17.71-13,35.46-19.62,53.11-6.62,17.83-13.58,35.63-20.43,53.51Zm55.14-52.15c-4.07,1.09-8.24,2.3-12.31,3.42q3.38-12.24,6.75-24.58c.52-1.93,1.13-3.75,1.69-5.74.24-.89.47-1.93.74-2.83a23.41,23.41,0,0,0,.7-4.07c-.08,2.14,0,4.24,0,6.35.13,1.73.3,3.5.43,5.28.62,7.38,1.34,14.78,2,22.17Zm36.19,27.3c1.1-16.39,2.28-32.94,3.45-49.33s2.35-33,3.5-49.45q18.69-5.38,37.34-10.6l3.77-1.05c8.09-2.23,13.84-1.88,17.33,1s5.8,8.91,6.75,18a56.59,56.59,0,0,1,.28,7,44.44,44.44,0,0,1-4.35,18.9,29.12,29.12,0,0,1-11.06,12.49c7.21,12.65,14.72,25.63,22.41,38.82-12.13,1.74-24.22,3.61-36.16,5.59-3.8-9.46-7.51-18.88-11.07-28.33q-.84,15.39-1.52,30.6-15.39,3-30.64,6.38Zm37.86-62.61a8.68,8.68,0,0,0,4.69-2.73,10.07,10.07,0,0,0,2.44-4.71,28.12,28.12,0,0,0,.62-4.28c.26-5.94-2.24-8.23-7.46-6.93-1.26.32-2.57.62-3.82,1-.34,6.26-.64,12.48-.94,18.7,1.47-.32,2.95-.62,4.49-1Z" transform="translate(-28.41 -68.86)"/><path class="cls-1" d="M28.43,286C35,260.14,41.34,234.26,47.8,208.4s12.94-51.73,19.37-77.63q20.89-.06,42-.19h4.19c9-.05,15,2.38,17.9,7s3.78,12.42,2.33,23.56a81.74,81.74,0,0,1-1.49,8.36,67.32,67.32,0,0,1-9.8,22.36c-4.51,6.68-9.62,11.81-15.28,15.17q6.66,23.46,14.15,44.39-20.84,7-41.77,14.62C78,254,76.54,241.52,75.28,228.71c-3.52,14.29-7,28.58-10.55,42.87Q46.58,278.51,28.41,286ZM89,193.28a11,11,0,0,0,5.84-3.18,17.52,17.52,0,0,0,4-6,39.53,39.53,0,0,0,1.77-5.63q2.88-11.92-5.91-10.93c-1.49.17-2.93.35-4.42.49-2.11,8.76-4.27,17.53-6.38,26.22,1.74-.31,3.35-.61,5.14-.95Zm44.22,11.81c-3.25,13.49-2.84,23.56,1.47,29.82,4.18,6.06,12.17,8,23.76,6.25.59-.09,1.51,0,2.8-.28,1.53-.29,3-.95,4.6-1.41,1.3-.39,2.68-.86,4-1.34s2.56-1,3.7-1.54c12.33-5.3,22.36-12.11,30-20.24a59.17,59.17,0,0,0,14.91-27.7q3.38-14.6,6.72-29.2t6.73-29.17l-32.21.07q-3.6,15.33-7.18,30.66t-7.17,30.59a24.11,24.11,0,0,1-3.54,8.64,14.47,14.47,0,0,1-6.19,4.71,9.81,9.81,0,0,1-1.69.64,7.26,7.26,0,0,1-1.68.07c-4.42-.12-5.7-3.76-4-11q3.76-16.08,7.59-32.15t7.66-32.18l-32.32.11c-3,12.42-5.88,24.88-8.89,37.31s-6.07,24.84-9.08,37.3Zm86.38,17.09c3.57-15.35,7-30.66,10.52-46s7-30.65,10.52-46c10.52,0,21,0,31.61,0,4.47,10.68,9.17,20.94,14,30.77a21.55,21.55,0,0,1,1.64,4.16c.35,1.35.78,3.12,1.27,5.34.53,2.37,1,4.69,1.59,7-.13-1.09-.3-2.18-.38-3.27a68.38,68.38,0,0,1-.1-7.16,39.84,39.84,0,0,1,.85-6.62c2-10,3.9-20.1,6-30.22l31.37,0c-2.45,11.51-4.85,23.06-7.29,34.56s-4.84,23.08-7.29,34.59q-17.28,3.85-34.38,7.81c-5-8-9.91-16.55-14.65-25.42a24.06,24.06,0,0,1-1.95-5.34c-.38-1.51-.73-3.51-1.1-6-.25-1.63-.38-3.26-.57-4.91a9,9,0,0,1-.12-1.26c-.06,1-.07,2-.05,3a63.58,63.58,0,0,1-1.39,15.07c-2.25,10.46-4.19,20.87-6.29,31.26C242.07,216.34,230.85,219.22,219.57,222.18Z" transform="translate(-28.41 -68.86)"/><path class="cls-1" d="M335.41,69.37c-.6-.2-2.07-.75-1.6.54.37,1,2.3,1.83,3.14,2.68s1.46,1.58,2.25,2.31c1.18,1,2.16,2.5,3.37,3.28A15.94,15.94,0,0,1,344.64,80a4.35,4.35,0,0,1,.75,1c.42.56.54.36,1.11.82s.07,0,.42.42a2.9,2.9,0,0,0,.52.53c.73.59,1.4,1.5,1.86,1.83s.77.43,1.17.75c5.51,4.37,2,1.49,6.79,4.59.39.26.54.43,1,.77l2.11,1.76a13,13,0,0,0,3.5,2.27c1.63.69.2,1.1,1.82,2.05l.87-.36v.53l-.69.53h1.91c0,1.08.14.51-.47.93a2,2,0,0,0-.73.86c-1.46.33-1.29.49-2.62-.17l.9,1.09a1.86,1.86,0,0,0,.35,1h1.4l.52-1.06,1.57.35,0,5.14c0,1.32.59,2.14.6,3.38a5.53,5.53,0,0,0,0,1.15L370,115l-.69.89h.52a10.28,10.28,0,0,0,.27,2.21,6.11,6.11,0,0,1-.08,2.21c0,1,.27,1.21.19,2.28a10.44,10.44,0,0,0,.38,4.61,2.39,2.39,0,0,0-1,1.09c-.22.57-.15.49-.66.74l-1.45.84c.78,1.16-.39.83-1.62,2.76L364,136.08v1.77c0,1.36,2,3.07,3,3.81a5.14,5.14,0,0,0,1.56.71c1.6.67,2.81,1.68,4.37,2.45.59.29,1,.41,1.58.69,2.95,1.43,2.77,3,3.27,5.88.11.63.65,5.57.93,6l1.38,1.08,2.08-1.07a13.27,13.27,0,0,1,1.65,3.46l.49,1.4a8.82,8.82,0,0,0,.68,2.37,11.08,11.08,0,0,1,1.17,4.14l1.48,3.8c1.86,0,2.89-3.16,2.83-4.73-.05-1.25-.51-2.81-.61-4.12a17.44,17.44,0,0,1,.49-2.14c.11-1.09.67-2.9-.65-3.37a11.39,11.39,0,0,0-1.75-.16c-1.31-.16-1.33-1.13-1.61-2.26h1.22l.52.89c.64-.63,1.27-2.08.65-2.79-1.2-1.39-.64-.49-.72-1.18l-.84-.09a1.33,1.33,0,0,0-.39-1l-.58-.83c-.77-.84-.53-.47-.62-2h-.84l.34-1.24c-.52-.06-.26-.06-.4-.2l-.14-.23c-1.2-1.69-.42-.69,0-3.64l-1.74.65c-.28-1.37.09-1.49.68-2.83l-.87-.53c.53-.14,2.42-1.44,2.15-2.07s-.78.32-1.27.5l-1.76.16,1-.71-1.22.19,0-1.81,1,.92.69-1.42a1.21,1.21,0,0,0-.4-.47,1.26,1.26,0,0,0-.48-.23c0-.56,0-.65.29-.95l1.79-1.89.69.17,1.39-1.07c0-1.2-1.19-1.4-1.89-2.14l-.56-.66c.65-1,1.9-1.8,1.95-2.27,0-.3,0-.11.06-.48.25-.95,1.19-1.24,2-1.69.09,1,.23.43.69.51l1.23.54,1.22-.72a3,3,0,0,1-2.44-.33c.22-.63.08-.14.22-.49a7.35,7.35,0,0,1,1-1.64l-.86-.89a6.86,6.86,0,0,1,1.33-1.13c.27-.2.18,0,.42-.29a1.15,1.15,0,0,0,.16-.68,1.22,1.22,0,0,1-.36.32.73.73,0,0,1-.78.43l-.17.52a.69.69,0,0,1-.92.37.71.71,0,0,1-.41-.8l.32-1a.7.7,0,0,1,.72-.49l-.32-1.1.84-1.6c-.77.22-.32.28-1,.62a5.67,5.67,0,0,1-.66.22c-.14,0,.14.14-.64-.12-.52-.17-.14-.16-.36-.69a4.69,4.69,0,0,1-.39-1.65c-.42-.24-.36-.63-.36-1a.71.71,0,0,1,.47-.67.7.7,0,0,1,.35-.12h-.05a1.57,1.57,0,0,1,.84-.24l-.37-.86a.7.7,0,0,1-1,.16.72.72,0,0,1-.29-.59v-.24l-.13,0c-.84-.11-.8-1.57.09-1.58a.76.76,0,0,1,.38.11.9.9,0,0,1,.54-.43,1.1,1.1,0,0,1,0-.8,2.59,2.59,0,0,1,.33-.85.76.76,0,0,1,.28-.49l0,0,0-.09a.71.71,0,0,1,.89-.45.61.61,0,0,1,.14.07,1.48,1.48,0,0,1,.09-.72.69.69,0,0,1-.5-.67,1.24,1.24,0,0,1,.17-.9,1.36,1.36,0,0,1,.28-.53.69.69,0,0,1,.42-.43.81.81,0,0,1,.16-.16c-.27-.25-.22-.58-.22-.92a.7.7,0,0,1,.7-.71h0v-.12a.7.7,0,0,1,1.4,0v.12l-.12-.13a1.62,1.62,0,0,1,.21,1.18.71.71,0,0,1-.62.78h0a1.46,1.46,0,0,1,.05.2,1.9,1.9,0,0,1,1,0,3.42,3.42,0,0,1,.59-.26c-.42-.43-.36-.86-.36-1.41a2.94,2.94,0,0,1,3.12-.86l.17,0c.19-.16.26-.33.42-.83h-.8a.68.68,0,0,1-.45.17h-1a1.57,1.57,0,0,1-1-.51.72.72,0,0,1,.14-1.41.84.84,0,0,1,.84.37l.53.13a.7.7,0,0,1,.45-.17h1.2c.09-.13.18-.25.28-.37h-.87L396,97l-1.06-.7,2.72-1.66c.59-.32,1-.35,1.6-.68.72-.42.71-.83,1.15-1.13s1.2-.38,1.66-.62a9,9,0,0,0,1.3-1l2.68-1.88a47.3,47.3,0,0,0,4.81-4.14A18.6,18.6,0,0,1,414.5,82l1.08-1.2c.77.18,1.89.71,2.62.34-.31-1.13-.06.16-1.58-1.76.76-.37,3.38-.36,3.84-.54l.84-.72h-3.66c.15-.59.29-.62.79-1,2.41-1.65,3.38-.94,2.68-2.41a7.11,7.11,0,0,0-3.35,1.58c-1.22,1.13-.7,0-.14-.68A5,5,0,0,0,419,73c-1.23,0-2.64,3-3.84,3.36l-1.71,0a16.89,16.89,0,0,1,.13-2.36l-1.2-1.17a5.94,5.94,0,0,0-.34,1.59l-.49,5.67c-.9.49-1.72,1.37-2.71,2-2.67,1.8-4,2.08-6.25,3.39-1.82,1-1,.91-3.2,1.36l.53.71a9.2,9.2,0,0,1-2.79.54l.17-1.06c-1.26.34-.16,1-1,1.59a2.05,2.05,0,0,1-.76.28c-.9.12-.09-.18-.72.05-.48.17,0,0-.28.18A9.76,9.76,0,0,1,393,90.36c-1.44.83-1.68.48-3.37.49a9,9,0,0,0-3.48.73c-.59-1.26-.16-1.11-1.4-1.76l.18,1.41c-.94,0-1.11-.71-1.57-1.41.49,0,1.39-.6,1.39-1.24s-.35-.19-.51-1.08c-.09-.46,0-1-.07-1.53A8.37,8.37,0,0,0,383,83.78L379,81.36a3.55,3.55,0,0,0-3.24,1.5l-1.26,3c-.32,1.54.84,4.22.11,5.21-.33.43.16.11-.57.31-.93.21-.72,0-1.42-.4a9.12,9.12,0,0,1-.92-.48c-.6-.42-.66-1-1.56-1.06-.69-.06-.42.09-.94,0A33.15,33.15,0,0,0,365.6,89a11.4,11.4,0,0,0-4.43-3.81,10.8,10.8,0,0,0-2.89-1.11l-1.88-.62a35.88,35.88,0,0,1-4.08-2.88l.17-1.23c-2.4.25-2.24.12-4.19-.86A20,20,0,0,1,346.12,77c-2.57-1.71-1.95-2-2.22-3.05l-.48-1.46a7.26,7.26,0,0,0-.36-1.94c-.68,0-1.05.88-1.39,1.59-.82-.21-.46-.42-1.66-.46-.74,0-1.46-1-2.5-1.85l-1.26-1c-.59.13-.36.15-.85.5ZM388.23,114s.08-.08,0,0a.74.74,0,0,0,.45-.32l.22.5Zm.17-4a.78.78,0,0,1,0-.54Zm1-2.46.13.1Zm.74-2.47a.36.36,0,0,0,.07-.1.67.67,0,0,0,.66.39,1.68,1.68,0,0,0,.79-.17c.17-.06.31,0,.47-.08l.82-.43a.66.66,0,0,0,.27.36,1.6,1.6,0,0,0,.42.4.7.7,0,0,0,.42.37.72.72,0,0,0,.56.68c.22.19.36.43.67.49a.65.65,0,0,0,.46.18h1v.06l-2.43.72a2.18,2.18,0,0,1-.72-.06,5.61,5.61,0,0,0,0-.58,1.61,1.61,0,0,0-1.49-1.5h-1a1.39,1.39,0,0,0-.63.18.68.68,0,0,0-.49-.52.59.59,0,0,0,.1-.39Zm5.81.58a.75.75,0,0,0-.15-.31v-1.07a.63.63,0,0,1,.32.12,1.41,1.41,0,0,0,1.06.4l.62.28a1.32,1.32,0,0,0-.15.39l.62-.09a1.33,1.33,0,0,0,.72.25,1.67,1.67,0,0,1-.67.29c-.25-.43-.68-.33-1.08-.33a.74.74,0,0,0-.45.15l-.84-.09Zm1.37-3.64a1.79,1.79,0,0,0-.26-.2h.26c.56,0,1-.26,1.11.34a1.31,1.31,0,0,1,0,.28,3.76,3.76,0,0,0-.92-.28,2,2,0,0,1-.21-.12Zm1.87.77-.16-.08c.62-.14,1.2-.23,1.29,0a.46.46,0,0,1-.07.39A5.54,5.54,0,0,1,399.15,102.78ZM396,96.27c0-.49.12-.43.51-.54v.53Zm-10.92,44.26c-.21-.92,0-.76-.18-1.59l1.39-.22c.44.65,1.17,1.39,1.23,2.14-1,.34-.5.18-1.68-.23l-.76-.11Zm-1.4.71c-.39,0,0,0,0-.09S384.12,141.24,383.67,141.24Z" transform="translate(-28.41 -68.86)"/><path class="cls-1" d="M389.34,90.47c1.24,0,.69-.07.89-.15,1.42-.57,1.15-.54,2.58-1.81-.55-1.14.53-2-3.32-2.28a8.55,8.55,0,0,0-2.08.72,5.21,5.21,0,0,0-.5.2c-.55.34-.16.16-.57.67l-.08.1c-.32.4-.09-.24-.34.43s.3,1,.69,1.34A3.42,3.42,0,0,0,389.34,90.47Z" transform="translate(-28.41 -68.86)"/><path class="cls-1" d="M358.13,117.34v.7c-.85,0-1-.28-1.75.18-.48.31-1.1,1.17.52,1.44l.3,0c.74.17.88.67,2,.09,1.56-.86,1.64,0,2.75-.94a7.57,7.57,0,0,1,1.39-1.07c1.72-1.06.53-2.34-.49-2.6C360.17,115.2,359.84,117.18,358.13,117.34Z" transform="translate(-28.41 -68.86)"/><path class="cls-1" d="M393.12,113.26c-2.37.5-3,2.38-1.76,3.42,0,0,.06.06.09.08,1.44,1,3.76.12,3.91-1.28v-.25c0-1-.35-1.54-1.47-1.9a1.59,1.59,0,0,0-.39-.1C393.11,113.18,393.34,113.21,393.12,113.26Z" transform="translate(-28.41 -68.86)"/><path class="cls-1" d="M366.33,119.41c.7.23.42.2,1.39,0v-.7C367.05,118.48,366.57,118.3,366.33,119.41Z" transform="translate(-28.41 -68.86)"/><path class="cls-1" d="M395.91,112c0,.89.69.82,1.22.71a1.25,1.25,0,0,0-.42-.86C396.4,111.59,395.91,111.56,395.91,112Z" transform="translate(-28.41 -68.86)"/><path class="cls-1" d="M402,111.27c.25,0,.25-.22.34-.36-.31-.43-.65-.51-1.39-.52A1,1,0,0,0,402,111.27Z" transform="translate(-28.41 -68.86)"/><path class="cls-1" d="M400.38,103.85v.35c.9.23.49.28,1.74-.36C401.35,103.83,401.05,103.59,400.38,103.85Z" transform="translate(-28.41 -68.86)"/><path class="cls-1" d="M396.92,107.58l1.22.52.35-.35C397.72,107.42,397,106.92,396.92,107.58Z" transform="translate(-28.41 -68.86)"/><path class="cls-1" d="M363.16,114.65c.64.3.89-.2,1.22-.71C363.51,114,363.52,114.11,363.16,114.65Z" transform="translate(-28.41 -68.86)"/><path class="cls-1" d="M361.83,96.8h.89c-.05-.65-.06-.65-.68-.7Z" transform="translate(-28.41 -68.86)"/><path class="cls-1" d="M362.23,103c.8.19.46.4.87-.18-.09-.16-.11-.35-.35-.35C362.34,102.46,362.24,102.59,362.23,103Z" transform="translate(-28.41 -68.86)"/><path class="cls-1" d="M366.11,110.93c.45.62.48.43.86-.18a3.84,3.84,0,0,0-.35-.18C366.31,110.57,366.15,110.66,366.11,110.93Z" transform="translate(-28.41 -68.86)"/><path class="cls-1" d="M390.85,114.33c-.18-.65-.6-.7-1.4-1A3.31,3.31,0,0,0,390.85,114.33Z" transform="translate(-28.41 -68.86)"/><path class="cls-1" d="M397.11,110.23c.42-.3.54-.3.69-.89C397.06,109.41,397.1,109.45,397.11,110.23Z" transform="translate(-28.41 -68.86)"/><path class="cls-1" d="M363.27,101.75l.35.35c.53-.4.28.11.35-.71C363.56,101.45,363.33,101.38,363.27,101.75Z" transform="translate(-28.41 -68.86)"/><path class="cls-1" d="M398.84,108.1c.31.46.09.37.7.53,0-.43.11-.34-.15-.57a.35.35,0,0,0-.5,0Z" transform="translate(-28.41 -68.86)"/><path class="cls-1" d="M404.85,92.69c.71-.17.53,0,.7-.54C405.09,92,404.91,92,404.85,92.69Z" transform="translate(-28.41 -68.86)"/><path class="cls-1" d="M355.17,117.35c.81-.07.3.19.69-.35a1,1,0,0,0-.69-.17Z" transform="translate(-28.41 -68.86)"/><path class="cls-1" d="M384.56,142.65v-.71C383.79,142.16,383.79,142.45,384.56,142.65Z" transform="translate(-28.41 -68.86)"/><rect class="cls-2" x="363.28" y="103.19" width="0.52" height="0.53" transform="translate(-28.99 -66.79) rotate(-0.32)"/><path class="cls-1" d="M390.18,118.58c.7-.19.51,0,.52-.88C390.13,118.12,390.5,117.88,390.18,118.58Z" transform="translate(-28.41 -68.86)"/><path class="cls-1" d="M365.34,98c-.39-.54.11-.29-.7-.36C364.84,98.4,364.77,98.29,365.34,98Z" transform="translate(-28.41 -68.86)"/><path class="cls-1" d="M397.57,99.44c.6-.16.54-.1.69-.71C397.57,98.92,397.88,98.82,397.57,99.44Z" transform="translate(-28.41 -68.86)"/><path class="cls-1" d="M394.55,88.15c.18-.21.05.15.23-.3s.07-.09.11-.59h-.35Z" transform="translate(-28.41 -68.86)"/><path class="cls-1" d="M363.6,97.86h.52v-.54C363.72,97.43,363.61,97.37,363.6,97.86Z" transform="translate(-28.41 -68.86)"/><path class="cls-1" d="M385.57,135.58c.52-.15.38,0,.52-.54h-.53Z" transform="translate(-28.41 -68.86)"/><path class="cls-1" d="M386.33,147.42c-.18-.49,0-.37-.7-.53C385.78,147.37,385.62,147.28,386.33,147.42Z" transform="translate(-28.41 -68.86)"/><path class="cls-1" d="M367.11,103.16a1.24,1.24,0,0,0,.52.18v-.53C367.32,102.86,367.16,102.81,367.11,103.16Z" transform="translate(-28.41 -68.86)"/><rect class="cls-2" x="394.5" y="109.38" width="0.52" height="0.36" transform="translate(-29.03 -66.62) rotate(-0.32)"/><path class="cls-1" d="M358.81,114h.69C359.31,113.7,358.91,113.31,358.81,114Z" transform="translate(-28.41 -68.86)"/><path class="cls-1" d="M388.08,116.65v-.54h-.35C387.85,116.6,387.66,116.39,388.08,116.65Z" transform="translate(-28.41 -68.86)"/><path class="cls-1" d="M390.17,115.75v-.53h-.35C389.94,115.7,389.75,115.5,390.17,115.75Z" transform="translate(-28.41 -68.86)"/><path class="cls-1" d="M387.73,149.71v-.36h-.52C387.47,149.75,387.24,149.56,387.73,149.71Z" transform="translate(-28.41 -68.86)"/><rect class="cls-2" x="385.74" y="134.36" width="0.52" height="0.18" transform="translate(-29.17 -66.67) rotate(-0.32)"/><path class="cls-1" d="M384.9,141.77c.18.18.63-.26.2-.1C385.1,141.67,384.61,141.47,384.9,141.77Zm.35.17.05-.05Z" transform="translate(-28.41 -68.86)"/><path class="cls-1" d="M368.06,115.16c.18.18.63-.26.21-.1C368.24,115.07,367.75,114.86,368.06,115.16Z" transform="translate(-28.41 -68.86)"/><path class="cls-1" d="M392.35,134.12c.18.18.63-.25.21-.1C392.53,134,392.06,133.83,392.35,134.12Z" transform="translate(-28.41 -68.86)"/><path class="cls-1" d="M384.23,145.48c0,.21.37.4.27,0s.42,0-.08,0C384.2,145.41,384.22,145.13,384.23,145.48Z" transform="translate(-28.41 -68.86)"/><path class="cls-1" d="M388.78,116.47c0,.21.37.39.27,0s.42,0-.08-.06C388.74,116.39,388.77,116.11,388.78,116.47Z" transform="translate(-28.41 -68.86)"/><path class="cls-1" d="M388.15,130.08c0,.21.38.4.27,0s.42,0-.08-.05C388.12,130,388.15,129.72,388.15,130.08Z" transform="translate(-28.41 -68.86)"/><path class="cls-1" d="M394.85,111.3c0,.21.37.4.27,0s.42,0-.08,0C394.82,111.23,394.85,111,394.85,111.3Z" transform="translate(-28.41 -68.86)"/><path class="cls-1" d="M357.25,117.16c0,.21.38.4.27,0s.45,0-.08,0C357.22,117.09,357.25,116.8,357.25,117.16Z" transform="translate(-28.41 -68.86)"/><path class="cls-1" d="M410.4,87c0,.06.19,0,.2,0s.31.42.08-.05C410.68,87,410.36,86.65,410.4,87Z" transform="translate(-28.41 -68.86)"/><path class="cls-1" d="M399.71,105.8c0,.43.27,0,.11,0h0C399.68,105.79,399.71,105.4,399.71,105.8Z" transform="translate(-28.41 -68.86)"/><path class="cls-1" d="M386.48,142.64l0,0S386.46,142.62,386.48,142.64Zm.17.18.05,0S386.63,142.8,386.65,142.82Z" transform="translate(-28.41 -68.86)"/><path class="cls-1" d="M395.23,117s0-.08,0,0h0S395.21,116.94,395.23,117Z" transform="translate(-28.41 -68.86)"/><path class="cls-1" d="M412.89,97.24s.05-.08.05,0h0S412.87,97.22,412.89,97.24Z" transform="translate(-28.41 -68.86)"/><path class="cls-1" d="M387.54,147.41s0-.08,0,0h0S387.53,147.39,387.54,147.41Z" transform="translate(-28.41 -68.86)"/><path class="cls-1" d="M407.46,91.08s.05-.07.05,0h0S407.44,91.07,407.46,91.08Z" transform="translate(-28.41 -68.86)"/><path class="cls-1" d="M396.17,97l.05-.06S396.15,97,396.17,97Z" transform="translate(-28.41 -68.86)"/><path class="cls-1" d="M367.9,122.05l.05,0S367.89,122,367.9,122.05Z" transform="translate(-28.41 -68.86)"/><path class="cls-1" d="M363.67,111.47l.05,0S363.65,111.46,363.67,111.47Z" transform="translate(-28.41 -68.86)"/><path class="cls-1" d="M387,133.62l.05-.05S386.94,133.61,387,133.62Z" transform="translate(-28.41 -68.86)"/><path class="cls-1" d="M265.76,330.92l2.64-1.13a2.11,2.11,0,0,0,.7.89,1.54,1.54,0,0,0,1.44.12,1.44,1.44,0,0,0,.85-.62.93.93,0,0,0,.09-.78.9.9,0,0,0-.54-.54,3.78,3.78,0,0,0-1.64,0,6.43,6.43,0,0,1-3-.18,2.39,2.39,0,0,1-1.42-1.51,2.56,2.56,0,0,1-.06-1.5,2.93,2.93,0,0,1,.89-1.44,6.08,6.08,0,0,1,2.11-1.17,4.79,4.79,0,0,1,2.9-.29,3,3,0,0,1,1.83,1.72l-2.62,1.1a1.46,1.46,0,0,0-.76-.75,1.49,1.49,0,0,0-1,.05,1.19,1.19,0,0,0-.67.47.73.73,0,0,0-.07.61.53.53,0,0,0,.34.33,2.42,2.42,0,0,0,1.07,0,12.14,12.14,0,0,1,2.95-.12,2.88,2.88,0,0,1,1.52.61,2.77,2.77,0,0,1,.85,1.25,3.25,3.25,0,0,1-.89,3.45,5.93,5.93,0,0,1-2.07,1.18,4.73,4.73,0,0,1-3.55.23,3.81,3.81,0,0,1-1.81-2Zm2.72-8.56.81-2.33-1.55.55-.42,1.25-1.1-.7-1.55.55,2,1.32,1.8-.64Zm7-1.87,2.83-1,1.21,3.51,1.75-4.57,3.77-1.33-2.11,4.71,5.48,4.55-3.48,1.24-3.25-3.14-.93,2.07.78,2.27-2.83,1-3.21-9.3Zm13.71.3a5.15,5.15,0,0,1,.09-4,5.87,5.87,0,0,1,7-2.39,5,5,0,0,1,2.39,3.1,6.21,6.21,0,0,1,.33,2.87,4.17,4.17,0,0,1-1,2.14,5.42,5.42,0,0,1-2.38,1.44,6.09,6.09,0,0,1-2.74.37,4.11,4.11,0,0,1-2.18-1,5.69,5.69,0,0,1-1.52-2.52Zm2.85-1a3.31,3.31,0,0,0,1.18,1.86,2.05,2.05,0,0,0,2.8-.86l0-.08a3.72,3.72,0,0,0-.21-2.34,3,3,0,0,0-1.15-1.75,2,2,0,0,0-2.81.95,3.38,3.38,0,0,0,.15,2.22Zm9-8.23,2.87-.91,2.17,7.09,4.47-1.41.72,2.32-7.34,2.3L301,311.6ZM320,314.26l-3.28,1v1.71l-3,.86.78-10.5,3.14-.93,6.23,8.41-3,.9Zm-1.2-1.87-2-3.09,0,3.7,2-.61Zm11.28-9.88,8.75-2.6.67,2.34-3,.85,2.05,7.12-2.88.86L333.64,304l-2.95.86-.68-2.33ZM345,308.3l-2.56-9.5,4.82-1.34a7.17,7.17,0,0,1,2.11-.34,2.28,2.28,0,0,1,1.38.55,2.72,2.72,0,0,1,.84,1.42,2.66,2.66,0,0,1-.62,2.64,3.52,3.52,0,0,1-.92.66,2,2,0,0,1,1.44.51,3.29,3.29,0,0,1,.57.48l2.14,2.36-3.27.91-2.33-2.48a2.15,2.15,0,0,0-.72-.58,1.19,1.19,0,0,0-.77,0l-.25.07,1,3.85Zm1.38-6.46,1.22-.34a4.43,4.43,0,0,0,.73-.34.84.84,0,0,0,.4-.43,1,1,0,0,0,0-.6.89.89,0,0,0-.48-.62,1.75,1.75,0,0,0-1.15.05l-1.26.35.52,1.93Zm16.24-2.56,2.74.12a4.83,4.83,0,0,1-.35,2,3.64,3.64,0,0,1-1.09,1.45,4.94,4.94,0,0,1-2,.91,6.11,6.11,0,0,1-2.62.2,4.08,4.08,0,0,1-2.08-1.16,5.7,5.7,0,0,1-1.44-2.73,5.2,5.2,0,0,1,.33-4,5.8,5.8,0,0,1,6.17-2.18,4.33,4.33,0,0,1,2.07,1.85L361.9,297a2.62,2.62,0,0,0-.42-.57,1.67,1.67,0,0,0-.73-.36,1.83,1.83,0,0,0-.84,0,1.75,1.75,0,0,0-1.31,1.2,3.55,3.55,0,0,0,.07,2,3.75,3.75,0,0,0,1,2.05,1.92,1.92,0,0,0,2.63-.55,3.17,3.17,0,0,0,.27-1.55Zm-2.49-6,1-2.24-1.6.43-.53,1.2-1-.8-1.59.43,1.89,1.5,1.85-.49Zm15,5.07-3.31.85-.06,1.71-2.95.77,1.13-10.46,3.17-.82L379,299l-3.05.79-.84-1.46Zm-1.1-1.9-1.9-3.17-.18,3.7Zm5.91-7.83,2.72-.65,4.8,4.45-1.24-5.3,2.75-.66,2.23,9.59-2.75.65-4.76-4.41,1.23,5.26-2.75.66Zm17-4.17,2.93-.7,1.21,5.21a8.54,8.54,0,0,1,.3,2.57,3,3,0,0,1-.82,1.71,4,4,0,0,1-2.08,1.13,5.16,5.16,0,0,1-2.31.14,2.94,2.94,0,0,1-1.48-.86,4.44,4.44,0,0,1-.94-1.75l2.7-1a3.74,3.74,0,0,0,.33.92,1,1,0,0,0,.47.43.85.85,0,0,0,.5,0,.81.81,0,0,0,.63-.54,2.57,2.57,0,0,0-.06-1.29l-1.38-5.91Zm14.46,5-3.34.74-.12,1.69-3,.66,1.49-10.41,3.19-.71,5.64,8.84-3.07.68-.8-1.49Zm-1.06-1.95-1.8-3.23-.3,3.69,2.11-.46Zm12.59-9,8.32-1.69.38,1.93-4.22,6.74,5.53-1.12.43,2.07-9,1.84-.4-2,4.18-6.66-4.77.95-.42-2.07Zm19.45,4.28-3.35.68-.15,1.69-3,.61,1.68-10.39,3.21-.65,5.48,8.93-3.08.63-.78-1.5Zm-1-2-1.73-3.26-.36,3.69,2.1-.43Zm6.33-7.47,4.38-.81a5.24,5.24,0,0,1,2.16,0,3.47,3.47,0,0,1,1.51.78,4.39,4.39,0,0,1,1,1.41,7.34,7.34,0,0,1,.57,1.83,6.67,6.67,0,0,1,.08,2.48,4.14,4.14,0,0,1-.7,1.61,3.22,3.22,0,0,1-1.19,1,7,7,0,0,1-1.72.59l-4.39.8-1.74-9.68ZM451,275l.95,5.29.72-.13a3,3,0,0,0,1.27-.43,1.43,1.43,0,0,0,.48-.86,4.69,4.69,0,0,0-.08-1.71,3.28,3.28,0,0,0-.87-2,2.1,2.1,0,0,0-1.74-.26L451,275Zm16.07,3.21-3.37.56-.21,1.69-3,.5,2-10.33,3.23-.53,5.18,9.12-3.1.52-.73-1.53Zm-1-2-1.62-3.32-.49,3.67,2.11-.35Zm8,2.33-1.4-9.75,4.94-.73a7.31,7.31,0,0,1,2.14-.08,2.32,2.32,0,0,1,1.3.72,2.81,2.81,0,0,1,.67,1.51,2.69,2.69,0,0,1-.94,2.55,3.66,3.66,0,0,1-1,.54,2,2,0,0,1,1.39.67,3.33,3.33,0,0,1,.51.55l1.84,2.61-3.38.49-2-2.74a2.19,2.19,0,0,0-.65-.67,1.24,1.24,0,0,0-.76-.12l-.26,0,.57,4-3,.43Zm2.14-6.24,1.27-.19a4.22,4.22,0,0,0,.76-.25.8.8,0,0,0,.42-.37,1,1,0,0,0-.29-1.29,1.82,1.82,0,0,0-1.15-.09l-1.3.2Z" transform="translate(-28.41 -68.86)"/></svg>