<svg id="Layer_1" data-name="Layer 1" xmlns="http://www.w3.org/2000/svg" viewBox="0 0 1078.73 786.37"><defs><style>.cls-1,.cls-2{fill:#8c8c8c;}.cls-1{fill-rule:evenodd;}</style></defs><title>logo-runzadar</title><path class="cls-1" d="M195.55,812.28c22.2-40.16,44.37-79.57,66-118.2,21.2-37.88,42.42-75,63.06-111.7A86.66,86.66,0,0,1,330,573.8c2.69-3.76,6.35-8.64,10.89-14.36,1.8-2.27,3.7-4.37,5.49-6.55-1.78,1.7-3.57,3.41-5.47,5.11-3.69,3.31-7.15,6.21-10.57,8.78s-6.17,4.41-8.75,5.35c-23.57,8.55-47.13,17.33-70.82,26.1,13.06-32.32,26-64.55,38.92-96.3Q375,475.44,460.25,450.39c-18.32,31.85-36.8,64.36-55.45,97.19q-28.44,50.05-57.75,101.87c-3.48,5.33-6.85,10.57-10.21,16-4.07,5.23-7.78,10.17-11.61,15.41,1.54-1.23,3.07-2.58,4.63-3.78,1.88-1.44,5-3.64,9.13-6.49s6.87-4.59,8.52-5.25c24.17-9.7,48.22-19.34,72.5-28.77-11.95,28.88-23.66,58.14-35.61,87.5-62.42,27.68-125.33,56.79-188.85,88.2ZM393.83,720c26.53-11,53.18-22,79.71-32.79,4-11.58,8-23.07,12.28-34.84,15.8-6.1,31.59-12.1,47.26-17.91-.28,10-.32,19.82-.48,29.64,26.4-10,52.68-19.65,78.95-29.24-4.81-36-9.45-72.33-13.47-109.08q-6.08-55.53-11-112.51-35.49,10.39-70.61,20.62-29.76,69.54-60.13,140.62C436,622.28,415,671,393.83,720ZM536.5,574.55c-9.78,3.31-19.67,6.8-29.45,10.3,7.37-21.34,14.75-42.79,22.12-64,1.72-4.88,3.75-9.92,5.51-15,.82-2.37,1.45-4.8,2.34-7.28a70.07,70.07,0,0,0,2.74-10.35c-.79,5.47-1.23,10.95-1.79,16.33-.07,4.52-.26,9-.22,13.57-.53,18.86-.83,37.63-1.25,56.49Zm77,59.57c6.85-40,13.53-80.16,20.33-120.18s13.59-80.15,20.56-120.27c28.48-8.4,57.21-16.75,85.68-25.09,26-7.62,45.73-3.39,59.89,12.52s19.45,40.35,15.21,73.59c-4.08,32-14.54,60.42-31.6,85.44s-39,43.82-64.87,56.32A128.46,128.46,0,0,1,704,602.56Q658.79,618,613.55,634.12Zm87.38-101.2c2-.84,3.9-1.56,6-2.6,8.74-4.28,15.48-9.68,20.53-16.42s8.79-15.65,11.68-27c.61-2.4,1.13-4.49,1.39-6.23s.61-3.15.77-4.22c2.08-14.2,0-23.94-5.27-29.54-5-5.25-11.74-6.69-21.14-3.81l-3.53,1.1c-4.46,29.86-9.16,59.72-13.63,89.59.94-.17,2.12-.64,3.18-.91Zm91.52,41c25.89-7.76,52-15.52,78-23,2.86-10.06,5.83-20.31,8.81-30.66,15.65-4.37,31.06-8.64,46.71-12.72.79,9.25,1.57,18.6,2.6,27.76,26.11-6.51,52.22-12.92,78.43-19-8.8-35.56-17.56-71-25.58-106.48-7.94-35.15-15.73-70.33-23.13-105.39-23.66,6.84-47.31,13.77-70.85,20.61-15.31,41.34-30.86,82.8-46.51,124C825.18,490.69,808.7,532.25,792.45,574Zm130.7-121.77c-9.65,2.54-19.53,5.37-29.18,8q8-28.6,16-57.4c1.24-4.5,2.67-8.76,4-13.41.58-2.07,1.11-4.51,1.75-6.61a52.89,52.89,0,0,0,1.68-9.5c-.2,5,0,9.91,0,14.82.29,4.05.69,8.19,1,12.34,1.48,17.24,3.19,34.5,4.79,51.76Zm85.77,63.75c2.61-38.27,5.41-76.92,8.18-115.18q4.2-57.84,8.3-115.47,44.31-12.57,88.49-24.75c2.94-.82,6-1.66,8.94-2.45,19.17-5.2,32.8-4.39,41.08,2.3s13.74,20.82,16,42a130.71,130.71,0,0,1,.67,16.37c-.35,16.26-3.78,31.08-10.32,44.11S1154.74,385.75,1144,392c17.09,29.54,34.88,59.86,53.12,90.66-28.76,4.06-57.42,8.41-85.72,13.05-9-22.09-17.8-44.08-26.23-66.16q-2,35.93-3.61,71.46-36.46,7.06-72.62,14.9Zm89.74-146.2a20.63,20.63,0,0,0,11.11-6.37,23.39,23.39,0,0,0,5.8-11,65.12,65.12,0,0,0,1.45-10c.62-13.85-5.31-19.21-17.66-16.17-3,.75-6.11,1.44-9.06,2.26-.82,14.62-1.52,29.14-2.23,43.66C1091.49,371.35,1095,370.64,1098.66,369.74Z" transform="translate(-126.04 -25.91)"/><path class="cls-1" d="M126,533c15.54-60.47,30.6-120.89,45.92-181.27s30.66-120.79,45.92-181.26q49.5-.15,99.57-.45c3.26,0,6.37,0,9.91,0,21.39-.11,35.53,5.55,42.44,16.44,6.8,10.72,8.95,29,5.53,55A186.82,186.82,0,0,1,371.75,261a155.73,155.73,0,0,1-23.24,52.19c-10.69,15.61-22.8,27.58-36.21,35.44q15.79,54.75,33.55,103.64-49.41,16.35-99,34.15c-3.41-28.29-6.82-57.35-9.81-87.26-8.32,33.37-16.5,66.73-25,100.09q-43,16.2-86.07,33.7ZM269.5,316.43A26.16,26.16,0,0,0,283.34,309a40.84,40.84,0,0,0,9.42-14,89.25,89.25,0,0,0,4.18-13.13q6.84-27.85-14-25.53c-3.54.4-6.94.81-10.48,1.14-5,20.46-10.12,40.93-15.11,61.24,4.11-.73,7.93-1.44,12.17-2.23ZM374.31,344c-7.71,31.49-6.74,55,3.48,69.63,9.9,14.15,28.84,18.77,56.31,14.59,1.41-.21,3.58-.07,6.65-.65,3.62-.69,7.2-2.23,10.89-3.3,3.1-.9,6.36-2,9.47-3.13s6.07-2.45,8.76-3.59c29.24-12.37,53-28.28,71.13-47.27,17.81-18.68,29.59-40.05,35.35-64.67q8-34.08,15.93-68.19t15.93-68.11l-76.34.17q-8.52,35.79-17,71.59t-17,71.43c-2.09,8.8-4.92,15.42-8.39,20.17s-8.35,8.28-14.67,11a23.27,23.27,0,0,1-4,1.49,17.89,17.89,0,0,1-4,.18c-10.48-.28-13.5-8.8-9.48-25.63q8.94-37.53,18-75.06t18.16-75.14c-25.64.06-51.13.19-76.62.25-7.07,29-13.93,58.09-21.07,87.11s-14.39,58-21.51,87.1ZM579.05,383.9c8.45-35.83,16.63-71.59,24.93-107.34S620.6,205,628.91,169.22c24.93-.05,49.86,0,74.92,0,10.61,24.93,21.73,48.9,33.1,71.86a49.26,49.26,0,0,1,3.88,9.7c.83,3.16,1.85,7.29,3,12.48,1.27,5.52,2.46,10.94,3.77,16.25-.3-2.54-.7-5.09-.89-7.63a155.8,155.8,0,0,1-.23-16.74,90,90,0,0,1,2-15.44c4.84-23.44,9.24-46.94,14.22-70.57l74.36.07c-5.81,26.87-11.49,53.85-17.28,80.69-5.83,27.05-11.47,53.9-17.28,80.77q-40.95,9-81.49,18.25c-11.85-18.76-23.48-38.65-34.73-59.36a55.47,55.47,0,0,1-4.6-12.47c-.92-3.53-1.73-8.2-2.62-14.1-.58-3.82-.89-7.63-1.34-11.48a20.79,20.79,0,0,1-.3-2.93c-.13,2.31-.16,4.63-.1,6.94A147.08,147.08,0,0,1,674,290.69c-5.33,24.43-9.94,48.72-14.91,73C632.37,370.27,605.78,377,579.05,383.9Z" transform="translate(-126.04 -25.91)"/><path class="cls-1" d="M853.6,27.09c-1.42-.47-4.91-1.74-3.78,1.26.88,2.35,5.45,4.28,7.44,6.25A75.58,75.58,0,0,0,862.58,40c2.8,2.27,5.12,5.83,8,7.65a39.38,39.38,0,0,1,4.91,4.16,10.7,10.7,0,0,1,1.76,2.37c1,1.31,1.28.83,2.63,1.9,1.07.85.18.11,1,1a7.66,7.66,0,0,0,1.25,1.23c1.73,1.38,3.31,3.49,4.39,4.28.91.67,1.84,1,2.79,1.74,13.06,10.2,4.78,3.49,16.08,10.73.92.59,1.28,1,2.32,1.8l5,4.1c3,2.31,4.46,3.69,8.31,5.3s.46,2.56,4.31,4.78l2.06-.84v1.24l-1.64,1.25,4.54,0c0,2.52.33,1.19-1.13,2.16a5,5,0,0,0-1.73,2c-3.46.79-3.06,1.16-6.2-.38L923.36,99a4.44,4.44,0,0,0,.84,2.47l3.3,0,1.23-2.48,3.72.81.06,12c0,3.08,1.4,5,1.41,7.89a13.39,13.39,0,0,0,0,2.69l1.6,11.28-1.64,2.07h1.24a24.31,24.31,0,0,0,.64,5.18c.51,2.87-.1,2.8-.19,5.16s.64,2.81.45,5.31c-.39,5.4-.35,5.5.89,10.76a5.71,5.71,0,0,0-2.41,2.55c-.51,1.34-.36,1.14-1.56,1.74l-3.43,1.95c1.83,2.7-.93,1.94-3.86,6.44l-4.32,8.05,0,4.13c0,3.16,4.83,7.16,7.23,8.88,1.58,1.13,1.88.94,3.69,1.67,3.79,1.55,6.66,3.91,10.36,5.72,1.39.68,2.34.95,3.74,1.61,7,3.34,6.56,7,7.76,13.73.26,1.48,1.53,13,2.2,14l3.26,2.52,4.94-2.5a31.6,31.6,0,0,1,3.91,8.08l1.15,3.28a20.58,20.58,0,0,0,1.63,5.53c1.75,3.82,2,4.53,2.76,9.66l3.52,8.89c4.39,0,6.85-7.39,6.7-11.06-.12-2.92-1.22-6.55-1.44-9.61,0-1.6.94-3.46,1.15-5,.27-2.55,1.6-6.77-1.54-7.86a28.32,28.32,0,0,0-4.14-.39c-3.11-.36-3.15-2.62-3.83-5.26l2.89,0,1.25,2.06c1.52-1.46,3-4.85,1.54-6.5-2.84-3.26-1.52-1.14-1.7-2.75l-2-.23a3.15,3.15,0,0,0-.93-2.38c-.44-.65-.92-1.3-1.37-1.94-1.83-1.94-1.25-1.09-1.46-4.74H970.6l.81-2.89c-1.23-.13-.62-.14-.95-.46l-.34-.54c-2.85-3.94-1-1.61,0-8.49L966,201.54c-.66-3.21.21-3.49,1.62-6.61l-2.07-1.23c1.26-.34,5.73-3.36,5.09-4.85s-1.85.76-3,1.18l-4.18.38,2.47-1.66-2.89.43.05-4.21,2.41,2.13,1.63-3.31a2.83,2.83,0,0,0-.94-1.1,3.07,3.07,0,0,0-1.14-.54c0-1.3-.09-1.5.68-2.2l4.24-4.43,1.65.4,3.29-2.49c0-2.81-2.81-3.27-4.47-5l-1.34-1.55c1.54-2.33,4.51-4.2,4.63-5.3.08-.7-.1-.25.13-1.11.6-2.23,2.83-2.91,4.68-3.95.21,2.28.54,1,1.64,1.18l2.92,1.27,2.88-1.67c-3,.45-3,.39-5.79-.79.52-1.46.2-.32.52-1.13a17.39,17.39,0,0,1,2.34-3.84L981,149.47a15.5,15.5,0,0,1,3.15-2.63c.64-.47.43,0,1-.68a2.82,2.82,0,0,0,.39-1.59,3.27,3.27,0,0,1-.87.75,1.76,1.76,0,0,1-1.85,1l-.39,1.2a1.66,1.66,0,0,1-3.15-1l.76-2.34a1.65,1.65,0,0,1,1.69-1.14l-.75-2.56,2-3.73c-1.83.5-.77.65-2.28,1.45a15.43,15.43,0,0,1-1.58.5c-.33,0,.34.32-1.5-.28-1.25-.4-.35-.37-.87-1.6a11.59,11.59,0,0,1-.91-3.87c-1-.55-.86-1.47-.86-2.41a1.65,1.65,0,0,1,1.11-1.57,1.62,1.62,0,0,1,.84-.28h-.12a3.71,3.71,0,0,1,2-.57l-.9-2a1.66,1.66,0,0,1-3-1c0-.17,0-.36,0-.56a1.36,1.36,0,0,1-.3-.13c-2-.26-1.91-3.67.2-3.68a1.63,1.63,0,0,1,.9.26,2.07,2.07,0,0,1,1.29-1,2.43,2.43,0,0,1,0-1.87,5.62,5.62,0,0,1,.78-2,1.79,1.79,0,0,1,.66-1.14l-.08.08.07-.21a1.66,1.66,0,0,1,2.44-.9,3.36,3.36,0,0,1,.2-1.67,1.64,1.64,0,0,1-1.19-1.58,2.84,2.84,0,0,1,.41-2.08,3.08,3.08,0,0,1,.66-1.25,1.69,1.69,0,0,1,1-1,1.62,1.62,0,0,1,.37-.37c-.62-.6-.5-1.37-.51-2.15a1.66,1.66,0,0,1,1.74-1.66v-.29a1.66,1.66,0,0,1,3.31,0v.28l-.29-.29a3.6,3.6,0,0,1,.49,2.74,1.66,1.66,0,0,1-1.49,1.84,1.64,1.64,0,0,1,.13.46,4.57,4.57,0,0,1,2.43-.08,9.19,9.19,0,0,1,1.41-.6c-1-1-.85-2-.85-3.29a7,7,0,0,1,7.39-2,2.57,2.57,0,0,1,.4.08c.44-.37.62-.76,1-1.93h-1.9a1.66,1.66,0,0,1-1.06.39H992.2a3.87,3.87,0,0,1-2.29-1.19,1.66,1.66,0,0,1,.33-3.28,2,2,0,0,1,2,.86l1.26.29a1.66,1.66,0,0,1,1.06-.39l2.85,0a8.84,8.84,0,0,1,.67-.86H996l1.22-3.31L994.7,90l6.44-3.89c1.4-.74,2.45-.81,3.81-1.57,1.7-1,1.67-1.94,2.72-2.65.78-.52,2.83-.88,3.93-1.45,1.63-.84,1.62-1.27,3.09-2.28l6.34-4.4a112.6,112.6,0,0,0,11.41-9.65c7.31-7.41,5.76-5,8.62-7.48l2.57-2.8c1.83.41,4.48,1.66,6.2.79-.72-2.65-.15.38-3.74-4.11,1.8-.87,8-.85,9.09-1.27l2-1.67-8.67,0c.36-1.39.69-1.46,1.87-2.26,5.72-3.86,8-2.21,6.34-5.63-2.13,0-6.36,2.25-7.94,3.69-2.89,2.64-1.66.11-.32-1.59,2.45-3.11,1.94-2.12,3.28-6.21-2.92,0-6.26,7-9.11,7.85l-4.06.06a38.41,38.41,0,0,1,.31-5.52l-2.83-2.72c-.36,1.57-.74,1.8-.81,3.72l-1.17,13.22c-2.14,1.15-4.08,3.2-6.41,4.75-6.35,4.2-9.44,4.85-14.83,7.92-4.3,2.45-2.33,2.12-7.58,3.18l1.25,1.64a21.81,21.81,0,0,1-6.6,1.27l.4-2.48c-3,.8-.38,2.34-2.46,3.71a4.64,4.64,0,0,1-1.8.66c-2.14.29-.23-.41-1.72.11-1.14.4,0-.06-.67.42a22.4,22.4,0,0,1-3.49,2.74c-3.43,1.93-4,1.13-8,1.14a21.77,21.77,0,0,0-8.24,1.7c-1.4-2.92-.38-2.58-3.32-4.11l.43,3.3c-2.24,0-2.64-1.65-3.73-3.28,1.17-.13,3.3-1.4,3.29-2.91s-.82-.44-1.21-2.51c-.2-1.09.08-2.39-.16-3.58-.28-1.43-1.87-3.84-2.73-5.12l-9.62-5.64c-2.7-.72-6.63,1.68-7.67,3.5l-3,6.88c-.74,3.61,2,9.87.27,12.18-.79,1,.37.26-1.36.71-2.19.5-1.69.1-3.35-.93-.86-.54-1.26-.45-2.19-1.11-1.43-1-1.56-2.3-3.7-2.49-1.62-.14-1,.21-2.23.06a79,79,0,0,0-8.47-.87,27.12,27.12,0,0,0-10.5-8.9,26.54,26.54,0,0,0-6.87-2.6l-4.45-1.43c-1.57-.46-7.92-5.5-9.66-6.72l.4-2.89c-5.69.6-5.3.29-9.93-2A46.59,46.59,0,0,1,879,45c-6.11-4-4.63-4.68-5.28-7.12l-1.14-3.41c-.37-2.22.07-1.82-.85-4.54-1.61,0-2.49,2.06-3.29,3.73-1.94-.51-1.08-1-3.92-1.08-1.77-.07-3.48-2.3-5.93-4.32l-3-2.37c-1.4.32-.85.37-2,1.18ZM978.79,131.35s.21-.19.11-.08a1.8,1.8,0,0,0,1.07-.74l.52,1.16-1.7-.34Zm.42-9.4a1.65,1.65,0,0,1-.13-1.25l.13,1.25Zm2.27-5.73a2.86,2.86,0,0,1,.3.22l-.3-.22Zm1.76-5.76a1,1,0,0,0,.16-.24,1.62,1.62,0,0,0,1.56.91,4,4,0,0,0,1.87-.4c.4-.13.73,0,1.12-.18l1.95-1a1.63,1.63,0,0,0,.62.84,4.1,4.1,0,0,0,1,.92,1.66,1.66,0,0,0,1,.86,1.67,1.67,0,0,0,1.34,1.59c.51.45.85,1,1.57,1.16a1.55,1.55,0,0,0,1.09.41H999l0,.15-5.77,1.68a5.65,5.65,0,0,1-1.71-.15,7.7,7.7,0,0,0,0-1.36,3.77,3.77,0,0,0-3.53-3.49h-2.33a3.1,3.1,0,0,0-1.5.41,1.58,1.58,0,0,0-1.16-1.2,1.53,1.53,0,0,0,.23-.92ZM997,111.81a1.66,1.66,0,0,0-.36-.74v-2.49a1.65,1.65,0,0,1,.77.29,3.34,3.34,0,0,0,2.51.93l1.47.65a3.28,3.28,0,0,0-.37.9,8.1,8.1,0,0,0,1.47-.21,3.2,3.2,0,0,0,1.72.59,3.68,3.68,0,0,1-1.59.67c-.6-1-1.61-.77-2.57-.76A1.62,1.62,0,0,0,999,112l-2-.22Zm3.26-8.5a4.11,4.11,0,0,0-.62-.48l.62,0c1.32-.11,2.35-.59,2.61.81a2,2,0,0,1,0,.65,8.81,8.81,0,0,0-2.17-.66c-.11-.07-.42-.22-.49-.28Zm4.42,1.8-.39-.19c1.47-.32,2.85-.54,3.06-.06a1,1,0,0,1-.16.91,12.68,12.68,0,0,1-2.51-.66Zm-7.5-15.21c0-1.14.29-1,1.23-1.25v1.24ZM971.31,193.24c-.51-2.15,0-1.77-.43-3.71l3.29-.5c1.05,1.52,2.77,3.25,2.93,5-2.34.79-1.19.41-4-.54l-1.79-.26ZM968,194.91c-.93,0,0,0,0-.21C968.11,194.24,969.05,194.91,968,194.91Z" transform="translate(-126.04 -25.91)"/><path class="cls-1" d="M981.43,76.36c2.94,0,1.63-.17,2.12-.36,3.36-1.33,2.71-1.26,6.11-4.22-1.3-2.66,1.24-4.56-7.87-5.33-1.24,0-3.84,1.26-4.93,1.69-.09,0-1.09.41-1.18.47-1.31.8-.38.36-1.35,1.57-.05.07-.14.16-.19.22-.78.94-.22-.55-.81,1-.5,1.34.7,2.32,1.63,3.14C976.67,76.12,978.4,76.38,981.43,76.36Z" transform="translate(-126.04 -25.91)"/><path class="cls-1" d="M907.45,139.09v1.65c-2,0-2.47-.67-4.14.42-1.13.73-2.62,2.73,1.23,3.36l.72.11c1.74.4,2.07,1.58,4.65.21,3.7-2,3.9,0,6.54-2.19a17.24,17.24,0,0,1,3.28-2.5c4.08-2.48,1.25-5.46-1.16-6.07C912.29,134.11,911.51,138.73,907.45,139.09Z" transform="translate(-126.04 -25.91)"/><path class="cls-1" d="M990.38,129.57c-5.61,1.18-7,5.57-4.17,8,.07,0,.16.14.23.18,3.41,2.45,8.9.28,9.25-3l0-.58c.09-2.41-.83-3.6-3.47-4.44a4,4,0,0,0-.92-.22C990.36,129.38,990.9,129.46,990.38,129.57Z" transform="translate(-126.04 -25.91)"/><path class="cls-1" d="M926.88,143.94c1.66.54,1,.46,3.3,0v-1.65C928.61,141.76,927.46,141.35,926.88,143.94Z" transform="translate(-126.04 -25.91)"/><path class="cls-1" d="M997,126.64c0,2.06,1.63,1.91,2.9,1.64-.22-.9-.27-1.4-1-2S997,125.6,997,126.64Z" transform="translate(-126.04 -25.91)"/><path class="cls-1" d="M1011.41,124.92c.6,0,.6-.51.82-.83-.75-1-1.56-1.19-3.31-1.22A2.44,2.44,0,0,0,1011.41,124.92Z" transform="translate(-126.04 -25.91)"/><path class="cls-1" d="M1007.6,107.6v.83c2.14.52,1.16.65,4.12-.85C1009.89,107.55,1009.19,107,1007.6,107.6Z" transform="translate(-126.04 -25.91)"/><path class="cls-1" d="M999.39,116.31l2.9,1.22.82-.83C1001.28,115.93,999.59,114.77,999.39,116.31Z" transform="translate(-126.04 -25.91)"/><path class="cls-1" d="M919.39,132.83c1.5.68,2.09-.47,2.88-1.67C920.2,131.23,920.24,131.55,919.39,132.83Z" transform="translate(-126.04 -25.91)"/><path class="cls-1" d="M916.23,91.14h2.11c-.13-1.52-.14-1.52-1.61-1.63Z" transform="translate(-126.04 -25.91)"/><path class="cls-1" d="M917.18,105.6c1.88.43,1.09.92,2.06-.42-.21-.37-.27-.82-.83-.82C917.43,104.36,917.2,104.65,917.18,105.6Z" transform="translate(-126.04 -25.91)"/><path class="cls-1" d="M926.36,124.13c1.07,1.44,1.14,1,2.06-.42a9.18,9.18,0,0,0-.83-.41C926.85,123.3,926.46,123.51,926.36,124.13Z" transform="translate(-126.04 -25.91)"/><path class="cls-1" d="M985,132.07c-.41-1.51-1.41-1.63-3.32-2.46A7.91,7.91,0,0,0,985,132.07Z" transform="translate(-126.04 -25.91)"/><path class="cls-1" d="M999.84,122.5c1-.71,1.28-.71,1.64-2.07C999.73,120.58,999.83,120.67,999.84,122.5Z" transform="translate(-126.04 -25.91)"/><path class="cls-1" d="M919.64,102.7l.83.82c1.26-.94.67.26.82-1.66C920.32,102,919.78,101.83,919.64,102.7Z" transform="translate(-126.04 -25.91)"/><path class="cls-1" d="M1003.94,117.53c.73,1.08.21.85,1.66,1.23-.09-1,.27-.79-.34-1.34A.84.84,0,0,0,1003.94,117.53Z" transform="translate(-126.04 -25.91)"/><path class="cls-1" d="M1018.2,81.54c1.67-.4,1.24-.12,1.64-1.25C1018.77,79.85,1018.34,79.82,1018.2,81.54Z" transform="translate(-126.04 -25.91)"/><path class="cls-1" d="M900.43,139.13c1.92-.17.72.44,1.65-.83a2.61,2.61,0,0,0-1.65-.4Z" transform="translate(-126.04 -25.91)"/><path class="cls-1" d="M970.1,198.2v-1.65C968.27,197.05,968.27,197.73,970.1,198.2Z" transform="translate(-126.04 -25.91)"/><rect class="cls-2" x="919.67" y="106" width="1.24" height="1.24" transform="translate(-126.63 -20.72) rotate(-0.32)"/><path class="cls-1" d="M983.43,142c1.66-.45,1.19-.12,1.23-2.07C983.3,140.93,984.19,140.37,983.43,142Z" transform="translate(-126.04 -25.91)"/><path class="cls-1" d="M924.55,94c-.94-1.26.26-.67-1.66-.82C923.35,94.88,923.2,94.63,924.55,94Z" transform="translate(-126.04 -25.91)"/><path class="cls-1" d="M1000.94,97.31c1.42-.39,1.27-.23,1.64-1.66C1000.94,96.1,1001.66,95.85,1000.94,97.31Z" transform="translate(-126.04 -25.91)"/><path class="cls-1" d="M993.78,70.93c.42-.49.12.36.55-.69s.17-.22.26-1.38h-.83Z" transform="translate(-126.04 -25.91)"/><path class="cls-1" d="M920.42,93.61h1.24V92.36C920.71,92.62,920.44,92.47,920.42,93.61Z" transform="translate(-126.04 -25.91)"/><path class="cls-1" d="M972.49,181.68c1.24-.34.91,0,1.23-1.25h-1.24Z" transform="translate(-126.04 -25.91)"/><path class="cls-1" d="M974.29,209.33c-.41-1.13,0-.85-1.66-1.23C973,209.22,972.61,209,974.29,209.33Z" transform="translate(-126.04 -25.91)"/><path class="cls-1" d="M928.74,106a3.11,3.11,0,0,0,1.24.41v-1.24C929.25,105.3,928.87,105.18,928.74,106Z" transform="translate(-126.04 -25.91)"/><rect class="cls-2" x="993.66" y="120.47" width="1.24" height="0.83" transform="translate(-126.71 -20.3) rotate(-0.32)"/><path class="cls-1" d="M909.06,131.24h1.65C910.25,130.6,909.31,129.7,909.06,131.24Z" transform="translate(-126.04 -25.91)"/><path class="cls-1" d="M978.45,137.48v-1.24h-.83C977.89,137.37,977.45,136.89,978.45,137.48Z" transform="translate(-126.04 -25.91)"/><path class="cls-1" d="M983.39,135.39v-1.24h-.83C982.84,135.28,982.4,134.8,983.39,135.39Z" transform="translate(-126.04 -25.91)"/><path class="cls-1" d="M977.62,214.68v-.83h-1.24C977,214.79,976.45,214.34,977.62,214.68Z" transform="translate(-126.04 -25.91)"/><rect class="cls-2" x="972.91" y="178.78" width="1.24" height="0.41" transform="translate(-127.03 -20.41) rotate(-0.32)"/><path class="cls-1" d="M970.91,196.14c.43.42,1.49-.6.48-.22,0,0-1.17-.47-.48.22Zm.83.4s.11-.11.12-.12Z" transform="translate(-126.04 -25.91)"/><path class="cls-1" d="M931,134c.43.42,1.49-.6.48-.23C931.42,133.79,930.26,133.32,931,134Z" transform="translate(-126.04 -25.91)"/><path class="cls-1" d="M988.57,178.29c.43.42,1.49-.6.48-.23C989,178.07,987.88,177.6,988.57,178.29Z" transform="translate(-126.04 -25.91)"/><path class="cls-1" d="M969.31,204.81c0,.49.89.93.64,0s1,0-.19-.12C969.24,204.64,969.3,204,969.31,204.81Z" transform="translate(-126.04 -25.91)"/><path class="cls-1" d="M980.1,137.06c0,.49.89.93.64,0s1,0-.19-.12C980,136.89,980.09,136.22,980.1,137.06Z" transform="translate(-126.04 -25.91)"/><path class="cls-1" d="M978.61,168.85c0,.49.89.93.64,0s1,0-.19-.12C978.54,168.68,978.61,168,978.61,168.85Z" transform="translate(-126.04 -25.91)"/><path class="cls-1" d="M994.48,125c0,.49.89.93.64,0s1,0-.19-.12C994.41,124.84,994.48,124.17,994.48,125Z" transform="translate(-126.04 -25.91)"/><path class="cls-1" d="M905.38,138.69c0,.48.89.92.64,0s1.05,0-.19-.12C905.31,138.52,905.37,137.85,905.38,138.69Z" transform="translate(-126.04 -25.91)"/><path class="cls-1" d="M1031.34,68.26c0,.14.46.09.49.08s.72,1,.18-.11C1032,68.22,1031.24,67.45,1031.34,68.26Z" transform="translate(-126.04 -25.91)"/><path class="cls-1" d="M1006,112.15c0,1,.66.1.26,0h0C1005.94,112.12,1006,111.22,1006,112.15Z" transform="translate(-126.04 -25.91)"/><path class="cls-1" d="M974.64,198.18l.12-.12s-.16.08-.12.12Zm.41.41.12-.12S975,198.55,975.05,198.59Z" transform="translate(-126.04 -25.91)"/><path class="cls-1" d="M995.38,138.21s.12-.18.12-.12h0S995.34,138.17,995.38,138.21Z" transform="translate(-126.04 -25.91)"/><path class="cls-1" d="M1037.25,92.17s.12-.18.12-.12h0S1037.2,92.13,1037.25,92.17Z" transform="translate(-126.04 -25.91)"/><path class="cls-1" d="M977.17,209.31s.12-.18.12-.12h0S977.13,209.27,977.17,209.31Z" transform="translate(-126.04 -25.91)"/><path class="cls-1" d="M1024.37,77.79s.12-.18.12-.12h0S1024.33,77.75,1024.37,77.79Z" transform="translate(-126.04 -25.91)"/><path class="cls-1" d="M997.61,91.55l.12-.12S997.57,91.51,997.61,91.55Z" transform="translate(-126.04 -25.91)"/><path class="cls-1" d="M930.62,150.11l.12-.12S930.58,150.07,930.62,150.11Z" transform="translate(-126.04 -25.91)"/><path class="cls-1" d="M920.58,125.4l.12-.12S920.54,125.36,920.58,125.4Z" transform="translate(-126.04 -25.91)"/><path class="cls-1" d="M975.77,177.12l.12-.12S975.73,177.08,975.77,177.12Z" transform="translate(-126.04 -25.91)"/><path class="cls-1" d="M688.53,637.82l6.24-2.64a5.24,5.24,0,0,0,1.67,2.08,3.74,3.74,0,0,0,3.42.28,3.52,3.52,0,0,0,2-1.45,2.16,2.16,0,0,0,.23-1.83A2.12,2.12,0,0,0,700.8,633a9.17,9.17,0,0,0-3.88-.06q-4.75.56-7.22-.43a5.59,5.59,0,0,1-3.36-3.53,6,6,0,0,1-.14-3.5,6.8,6.8,0,0,1,2.1-3.36,14.45,14.45,0,0,1,5-2.72c2.78-1,5.07-1.2,6.89-.68a7.06,7.06,0,0,1,4.32,4l-6.19,2.58a3.55,3.55,0,0,0-1.81-1.76,3.65,3.65,0,0,0-2.46.12,2.83,2.83,0,0,0-1.59,1.11,1.64,1.64,0,0,0-.17,1.42,1.28,1.28,0,0,0,.81.76,5.73,5.73,0,0,0,2.53,0,29.55,29.55,0,0,1,7-.28,6.93,6.93,0,0,1,3.61,1.44,6.48,6.48,0,0,1,2,2.91,7.25,7.25,0,0,1,.19,4.25,7.69,7.69,0,0,1-2.29,3.81,13.93,13.93,0,0,1-4.91,2.74c-3.69,1.29-6.5,1.48-8.42.55a9,9,0,0,1-4.29-4.58Zm6.45-20,1.92-5.43-3.69,1.29-1,2.9-2.6-1.63-3.66,1.28,4.77,3.08,4.27-1.49Zm16.57-4.37,6.71-2.35,2.87,8.2,4.16-10.67,8.92-3.12-5,11,13,10.63-8.26,2.9-7.7-7.33-2.2,4.84,1.86,5.3-6.71,2.35-7.61-21.71Zm32.5.7q-1.77-5.34.23-9.31t7.31-5.72q5.46-1.8,9.37.15t5.66,7.22a14.34,14.34,0,0,1,.79,6.71,9.66,9.66,0,0,1-2.46,5,13,13,0,0,1-5.62,3.37,14.81,14.81,0,0,1-6.51.85,9.71,9.71,0,0,1-5.16-2.43,13.15,13.15,0,0,1-3.61-5.88Zm6.76-2.21c.73,2.21,1.66,3.65,2.8,4.35a4.9,4.9,0,0,0,6.72-2.19q.72-1.81-.48-5.47a7.1,7.1,0,0,0-2.74-4.1,4.5,4.5,0,0,0-3.85-.3,4.32,4.32,0,0,0-2.8,2.53q-.75,1.85.35,5.18Zm21.34-19.21,6.79-2.12,5.16,16.55,10.59-3.3,1.69,5.41L779,614.64l-6.85-21.95ZM817,598.9l-7.77,2.27v4l-7,2,1.84-24.51,7.44-2.18,14.76,19.65-7.14,2.09L817,598.9Zm-2.83-4.35-4.76-7.22-.11,8.65,4.87-1.43Zm26.73-23.07,20.74-6.07,1.6,5.45-7,2,4.86,16.62-6.82,2-4.86-16.62-7,2-1.61-5.44ZM876.24,585l-6.07-22.19,11.43-3.13a17.08,17.08,0,0,1,5-.78,5.28,5.28,0,0,1,3.26,1.28,6.26,6.26,0,0,1,2,3.31,6.15,6.15,0,0,1-1.48,6.17,8.38,8.38,0,0,1-2.17,1.53,4.82,4.82,0,0,1,3.42,1.19,8.81,8.81,0,0,1,1.34,1.12l5.08,5.52-7.75,2.12-5.52-5.78a5.23,5.23,0,0,0-1.71-1.37,3,3,0,0,0-1.82-.05l-.61.17,2.46,9L876.24,585Zm3.28-15.09,2.89-.79a10.91,10.91,0,0,0,1.73-.8,1.93,1.93,0,0,0,.93-1,2.16,2.16,0,0,0,.08-1.4,2.11,2.11,0,0,0-1.13-1.46,4.29,4.29,0,0,0-2.72.12l-3,.82,1.23,4.51ZM918,563.93l6.5.29a11.45,11.45,0,0,1-.83,4.73,8.61,8.61,0,0,1-2.59,3.4,12.35,12.35,0,0,1-4.71,2.12,14.81,14.81,0,0,1-6.21.46,9.71,9.71,0,0,1-4.93-2.71,13.12,13.12,0,0,1-3.41-6.38q-1.41-5.54.77-9.26t7.57-5.1a11.7,11.7,0,0,1,7.06,0,10.3,10.3,0,0,1,4.91,4.32l-5.74,2.91a5.65,5.65,0,0,0-1-1.33,4,4,0,0,0-1.72-.85,4.3,4.3,0,0,0-2,.05,4.18,4.18,0,0,0-3.11,2.8,8.29,8.29,0,0,0,.18,4.64c.63,2.48,1.44,4.07,2.42,4.8a4.59,4.59,0,0,0,6.22-1.3,7.09,7.09,0,0,0,.65-3.6Zm-5.9-14,2.39-5.24-3.79,1-1.26,2.8L907,546.64l-3.76,1,4.48,3.49,4.39-1.13Zm35.51,11.82-7.85,2-.14,4-7,1.79,2.69-24.43,7.51-1.91,14.07,20.15-7.21,1.84-2-3.4ZM945,557.32l-4.51-7.39-.41,8.64,4.92-1.25Zm14-18.27,6.46-1.53,11.36,10.39-2.93-12.38,6.52-1.54,5.29,22.39-6.52,1.54-11.29-10.31,2.91,12.29-6.51,1.54L959,539.05Zm40.4-9.75,6.93-1.64,2.88,12.17a20,20,0,0,1,.7,6,6.9,6.9,0,0,1-1.93,4,9.4,9.4,0,0,1-4.93,2.63,12.38,12.38,0,0,1-5.47.33,6.74,6.74,0,0,1-3.51-2,10.32,10.32,0,0,1-2.23-4.08l6.4-2.46a7.94,7.94,0,0,0,.78,2.14,2.43,2.43,0,0,0,1.1,1,1.85,1.85,0,0,0,1.2,0,1.92,1.92,0,0,0,1.5-1.26,5.91,5.91,0,0,0-.15-3l-3.27-13.8ZM1033.66,541l-7.91,1.73-.28,3.95-7.1,1.55,3.54-24.32,7.57-1.65,13.35,20.63-7.27,1.59-1.9-3.48Zm-2.51-4.55-4.25-7.54-.71,8.62,5-1.08Zm29.84-21,19.73-3.94.9,4.51-10,15.73,13.11-2.62,1,4.85-21.4,4.28-.94-4.68,9.9-15.56L1062,520.24l-1-4.83Zm46.1,10-7.94,1.59-.35,3.94-7.12,1.42,4-24.25,7.6-1.52,13,20.86-7.3,1.46-1.85-3.5Zm-2.43-4.59-4.11-7.61-.86,8.6,5-1Zm15-17.46,10.39-1.89a12.84,12.84,0,0,1,5.12-.07,8.33,8.33,0,0,1,3.56,1.82,10.09,10.09,0,0,1,2.45,3.3,17.13,17.13,0,0,1,1.35,4.28,15.45,15.45,0,0,1,.2,5.78,9.48,9.48,0,0,1-1.68,3.76,7.5,7.5,0,0,1-2.82,2.37,16.19,16.19,0,0,1-4.06,1.37L1123.75,526l-4.12-22.61Zm7.92,3.86,2.25,12.36,1.71-.31a7.3,7.3,0,0,0,3-1,3.37,3.37,0,0,0,1.15-2,10.92,10.92,0,0,0-.19-4c-.44-2.4-1.12-4-2.06-4.71a5.07,5.07,0,0,0-4.14-.62l-1.75.32Zm38.09,7.5-8,1.31-.49,3.93-7.17,1.17,4.81-24.1,7.65-1.25,12.26,21.3-7.34,1.2-1.73-3.56Zm-2.28-4.67-3.85-7.75-1.16,8.57,5-.82Zm19,5.43-3.32-22.76,11.72-1.71a17.26,17.26,0,0,1,5.06-.17,5.32,5.32,0,0,1,3.08,1.67,6.31,6.31,0,0,1,1.59,3.53,6.19,6.19,0,0,1-2.22,5.95,8.64,8.64,0,0,1-2.34,1.26,7.44,7.44,0,0,1,2,.57,7.35,7.35,0,0,1,1.3,1,8.68,8.68,0,0,1,1.19,1.27l4.36,6.1-8,1.16-4.77-6.41a5.51,5.51,0,0,0-1.53-1.57,2.91,2.91,0,0,0-1.8-.27l-.62.09,1.35,9.24-7.06,1Zm5.08-14.57,3-.43a11.07,11.07,0,0,0,1.81-.58,1.91,1.91,0,0,0,1-.88,2.32,2.32,0,0,0-.7-3,4.22,4.22,0,0,0-2.71-.21l-3.09.45Z" transform="translate(-126.04 -25.91)"/></svg>