<svg id="Layer_1" data-name="Layer 1" xmlns="http://www.w3.org/2000/svg" xmlns:xlink="http://www.w3.org/1999/xlink" viewBox="0 0 878.37 933.02"><defs><style>.cls-1{fill:none;clip-rule:evenodd;}.cls-2{clip-path:url(#clip-path);}.cls-3{fill:url(#linear-gradient);}.cls-4{clip-path:url(#clip-path-2);}.cls-5{fill:url(#linear-gradient-2);}.cls-6{clip-path:url(#clip-path-3);}.cls-7{fill:url(#linear-gradient-3);}.cls-8{clip-path:url(#clip-path-4);}.cls-9{fill:url(#linear-gradient-4);}.cls-10{clip-path:url(#clip-path-5);}.cls-11{fill:url(#linear-gradient-5);}.cls-12{clip-path:url(#clip-path-6);}.cls-13{fill:url(#linear-gradient-6);}.cls-14{clip-path:url(#clip-path-7);}.cls-15{fill:url(#linear-gradient-7);}.cls-16{clip-path:url(#clip-path-8);}.cls-17{fill:url(#linear-gradient-8);}.cls-18{clip-path:url(#clip-path-9);}.cls-19{fill:url(#linear-gradient-9);}.cls-20{font-size:117.8px;font-family:AvenirNextLTPro-HeavyCnIt, Avenir Next LT Pro;font-weight:800;font-style:italic;}.cls-21{clip-path:url(#clip-path-10);}.cls-22{fill:url(#linear-gradient-10);}.cls-23{fill-rule:evenodd;}.cls-24{clip-path:url(#clip-path-11);}.cls-25{fill:url(#linear-gradient-11);}</style><clipPath id="clip-path" transform="translate(178.89 48.67)"><path class="cls-1" d="M193.15,376a6.37,6.37,0,0,0,.84,9c.73.59,72.92,60.37,135,110.18a6.34,6.34,0,0,0,8.94-1,6.37,6.37,0,0,0-1-8.95c-62-49.75-134.13-109.47-134.85-110.06a6.3,6.3,0,0,0-4.05-1.47A6.37,6.37,0,0,0,193.15,376Z"/></clipPath><linearGradient id="linear-gradient" y1="841.39" x2="1" y2="841.39" gradientTransform="matrix(0, 2509.78, -2487.04, 0, 2092835.43, -193.31)" gradientUnits="userSpaceOnUse"><stop offset="0" stop-color="#fff"/><stop offset="1" stop-color="#231f20"/></linearGradient><clipPath id="clip-path-2" transform="translate(178.89 48.67)"><path class="cls-1" d="M226.43,108.24c-2.83,1.13-69.36,28.37-78.56,73.71-4.15,20.49,4,41.1,24.26,61.23,46.24,46,238.83,160.73,247,165.59a5.3,5.3,0,0,0,5.42-9.12c-2-1.18-199.63-118.91-244.95-164-17.55-17.47-24.73-34.82-21.34-51.59,8-39.75,71.49-65.75,72.13-66a5.3,5.3,0,0,0-2-10.22A5.09,5.09,0,0,0,226.43,108.24Z"/></clipPath><linearGradient id="linear-gradient-2" x1="0.02" y1="841.39" x2="0.98" y2="841.39" gradientTransform="matrix(0, 2509.78, -2487.04, 0, 2092862.57, -269.12)" xlink:href="#linear-gradient"/><clipPath id="clip-path-3" transform="translate(178.89 48.67)"><path class="cls-1" d="M205.24,205.74a8.49,8.49,0,0,0-.51,12c41.38,45.09,158.42,94,252.46,133.32,11.62,4.85,22.78,9.52,33.26,13.95a8.41,8.41,0,0,0,3.3.68,8.49,8.49,0,0,0,3.31-16.3c-10.5-4.44-21.68-9.12-33.32-14-87.63-36.62-207.65-86.78-246.51-129.13a8.49,8.49,0,0,0-12-.52Z"/></clipPath><linearGradient id="linear-gradient-3" x1="0.05" y1="841.39" x2="0.95" y2="841.39" gradientTransform="matrix(0, 2509.78, -2487.04, 0, 2092921.97, -310.52)" xlink:href="#linear-gradient"/><clipPath id="clip-path-4" transform="translate(178.89 48.67)"><path class="cls-1" d="M163.27,137.06h0a4.27,4.27,0,0,0-1.73.39C119.5,156.72,96,178,89.6,202.59c-5,19.28.73,39.81,17.54,62.77,11.36,15.5,26,28.63,43,43.84,3.85,3.44,7.84,7,12,10.78,22.59,20.54,90.4,69.66,176.25,131.84,36.55,26.48,74.34,53.85,113.76,82.71a4.18,4.18,0,0,0,2.5.82,4.24,4.24,0,0,0,2.51-7.66C417.73,498.81,378.22,470.2,343.37,445c-85.64-62-153.28-111-175.52-131.25-4.16-3.78-8.17-7.37-12-10.82-17.32-15.5-31-27.75-41.83-42.54-15.21-20.76-20.51-39-16.18-55.62,5.62-21.63,28.24-41.67,67.24-59.56a4.25,4.25,0,0,0-1.78-8.1"/></clipPath><linearGradient id="linear-gradient-4" x1="0.02" y1="841.39" x2="0.98" y2="841.39" gradientTransform="matrix(0, 2509.78, -2487.04, 0, 2092851.18, -232.22)" xlink:href="#linear-gradient"/><clipPath id="clip-path-5" transform="translate(178.89 48.67)"><path class="cls-1" d="M555.52,488.41h.05a6,6,0,0,0,3-11.21l-93.2-54.76a5.93,5.93,0,0,0-3-.83,6,6,0,0,0-3.06,11.21l93.2,54.76a5.83,5.83,0,0,0,3,.83"/></clipPath><linearGradient id="linear-gradient-5" x1="0.03" y1="841.39" x2="0.97" y2="841.39" gradientTransform="matrix(0, 2509.78, -2487.04, 0, 2093078.59, -369.6)" xlink:href="#linear-gradient"/><clipPath id="clip-path-6" transform="translate(178.89 48.67)"><path class="cls-1" d="M115.46,195.3c-10.83,60.58,85.19,120.86,178,179.15,13.49,8.47,26.24,16.47,38.47,24.37,30.14,19.46,84.81,53.9,137.67,87.2,29.21,18.41,21.9,14.37,45.93,29.59a11.67,11.67,0,0,0,12.49-19.71c-24-15.23-16.75-11.19-46-29.61C429.27,433,374.66,398.61,344.63,379.22c-12.36-8-25.17-16-38.73-24.53C227.69,305.59,130.36,244.5,138.42,199.4A11.66,11.66,0,0,0,129,185.87a12,12,0,0,0-2.06-.18A11.66,11.66,0,0,0,115.46,195.3Z"/></clipPath><linearGradient id="linear-gradient-6" x1="0.01" y1="841.39" x2="0.99" y2="841.39" gradientTransform="matrix(0, 2509.78, -2487.04, 0, 2092878.01, -263.19)" xlink:href="#linear-gradient"/><clipPath id="clip-path-7" transform="translate(178.89 48.67)"><path class="cls-1" d="M188.35,542.79a9.54,9.54,0,0,0-1,13.46L332.9,725.49A9.54,9.54,0,1,0,347.37,713L201.81,543.81a9.56,9.56,0,0,0-13.46-1Z"/></clipPath><linearGradient id="linear-gradient-7" x1="0.03" y1="841.39" x2="0.97" y2="841.39" gradientTransform="matrix(0, 2509.78, -2487.04, 0, 2092836.83, -127.14)" xlink:href="#linear-gradient"/><clipPath id="clip-path-8" transform="translate(178.89 48.67)"><path class="cls-1" d="M77.52,269.88a12.72,12.72,0,0,0-8.9,15.64c8,29,31.15,62.85,67.06,97.77,73.07,71.06,162.78,152.38,241.91,224.13,27.43,24.86,53.33,48.35,77.12,70.11a12.72,12.72,0,1,0,17.18-18.77c-23.84-21.81-49.76-45.31-77.2-70.19C315.7,517,226.17,435.79,153.42,365c-32.19-31.3-53.59-61.93-60.27-86.25a12.72,12.72,0,0,0-12.26-9.36A13.13,13.13,0,0,0,77.52,269.88Z"/></clipPath><linearGradient id="linear-gradient-8" x1="0.01" y1="841.39" x2="0.99" y2="841.39" gradientTransform="matrix(0, 2509.78, -2487.04, 0, 2092842, -184.77)" xlink:href="#linear-gradient"/><clipPath id="clip-path-9" transform="translate(178.89 48.67)"><path class="cls-1" d="M189.12,150.2h-.05a2.1,2.1,0,0,0-1.34.51c-.75.63-18.32,15.84-17,38.82,1,18.68,14.19,36.68,39.1,53.48,47.86,32.28,247,139.1,249,140.17a2.1,2.1,0,0,0,1,.26,2.12,2.12,0,0,0,1-4c-2-1.08-201-107.8-248.65-139.95-23.73-16-36.26-32.89-37.24-50.16-1.18-20.86,15.39-35.26,15.56-35.4a2.13,2.13,0,0,0,.23-3,2.1,2.1,0,0,0-1.59-.75"/></clipPath><linearGradient id="linear-gradient-9" x1="0.01" y1="841.38" x2="0.99" y2="841.38" gradientTransform="matrix(0, 2509.78, -2487.04, 0, 2092864.23, -289.22)" xlink:href="#linear-gradient"/><clipPath id="clip-path-10" transform="translate(178.89 48.67)"><path class="cls-1" d="M77.44,210.52c-48.78,40.77-36.37,117.87,22.88,192.33,26.09,32.78,126.87,140.61,208.45,225.41a2.08,2.08,0,0,0,1.52.66,2.13,2.13,0,0,0,1.53-3.6c-81.5-84.74-182.17-192.43-208.18-225.12C45.88,327.62,33.22,253,80.16,213.78a2.12,2.12,0,0,0-2.72-3.26Z"/></clipPath><linearGradient id="linear-gradient-10" x1="0.06" y1="841.4" x2="0.94" y2="841.4" gradientTransform="matrix(0, 2509.78, -2487.04, 0, 2092755.84, -127.38)" xlink:href="#linear-gradient"/><clipPath id="clip-path-11" transform="translate(178.89 48.67)"><path class="cls-1" d="M211.85,173a4.24,4.24,0,0,0-3.08,5.15c.31,1.21,17.55,33.65,90.8,59.39,71.05,25,248.33,94.65,250.12,95.35a4.24,4.24,0,0,0,3.1-7.89c-1.78-.7-179.21-70.45-250.41-95.46-67.65-23.77-85.24-53-85.39-53.52a4.25,4.25,0,0,0-4.11-3.14A4.59,4.59,0,0,0,211.85,173Z"/></clipPath><linearGradient id="linear-gradient-11" x1="0.05" y1="841.39" x2="0.95" y2="841.39" gradientTransform="matrix(0, 2509.78, -2471.18, 0, 2079608.68, -425.93)" xlink:href="#linear-gradient"/></defs><title>logo utrke Grawe Zadar Night Run 2020</title><g class="cls-2"><rect class="cls-3" x="170.18" y="338.48" width="190.7" height="193.21" transform="translate(-57.93 397.48) rotate(-48.86)"/></g><g class="cls-4"><rect class="cls-5" x="78.74" y="52.44" width="414.14" height="412.48" transform="translate(81.85 352.41) rotate(-48.86)"/></g><polygon points="362.99 302.08 332.44 345.02 356.01 345.02 352.16 367.75 298.76 367.75 302.25 347.55 332.56 304.73 312.35 304.73 316.2 282.6 366.35 282.6 362.99 302.08"/><path d="M222.34,306.57H207.07l-4.45,12.51H176.4l35.84-85.15h31.15l4.45,85.15h-25.5Zm-9.26-19.12h9.62v-28h-.48Z" transform="translate(178.89 48.67)"/><path d="M251.73,319.08l14.8-85.16h25.14a42.7,42.7,0,0,1,15.45,2.47,25.68,25.68,0,0,1,10.22,6.92A26.92,26.92,0,0,1,323,254a50.38,50.38,0,0,1,1.74,13.65,87.8,87.8,0,0,1-.72,10.83,60.71,60.71,0,0,1-2.59,11.48,54.9,54.9,0,0,1-5,11,35.31,35.31,0,0,1-8,9.32,37.94,37.94,0,0,1-11.66,6.44,47.45,47.45,0,0,1-15.82,2.4ZM298.88,270a36.48,36.48,0,0,0-.36-5.17,15.16,15.16,0,0,0-1.32-4.51,8,8,0,0,0-2.71-3.19,7.57,7.57,0,0,0-4.39-1.2h-2L281,297.07h2.29a10.44,10.44,0,0,0,7.45-2.83,20.7,20.7,0,0,0,4.81-7,37.33,37.33,0,0,0,2.59-8.84A52,52,0,0,0,298.88,270Z" transform="translate(178.89 48.67)"/><path d="M362,306.57H346.75l-4.45,12.51H316.08l35.85-85.15h31.14l4.46,85.15H362Zm-9.26-19.12h9.62v-28h-.48Z" transform="translate(178.89 48.67)"/><path d="M463.3,257.86q0,9.27-3.67,15.64a21.55,21.55,0,0,1-10.4,9.26l8.06,36.32H430.7l-4.57-31H423l-5.42,31h-24l14.79-85.15H437.8q12.39,0,18.94,6t6.56,17.92m-25.38,3.25q0-3.74-2-4.93a7.4,7.4,0,0,0-3.79-1.21h-3.37L426,270.73h2.65a10.31,10.31,0,0,0,6.43-2.16C437,267.12,437.92,264.64,437.92,261.11Z" transform="translate(178.89 48.67)"/><polygon points="377.22 472.56 351 472.56 343.9 430.83 343.55 430.83 337.17 472.56 314.8 472.56 329.59 387.41 356.42 387.41 363.15 430.35 363.63 430.35 370.37 387.41 392.02 387.41 377.22 472.56"/><polygon points="415.47 472.56 389.97 472.56 404.76 387.41 430.26 387.41 415.47 472.56"/><path d="M303.93,365.32a15.38,15.38,0,0,0-4-3.31,12,12,0,0,0-5.95-1.26,11.91,11.91,0,0,0-7.76,2.7,21.73,21.73,0,0,0-5.47,6.86,36.23,36.23,0,0,0-3.25,9.14,44.77,44.77,0,0,0-1.08,9.44,24.33,24.33,0,0,0,.54,5.23,12.18,12.18,0,0,0,1.75,4.27,8.69,8.69,0,0,0,3.18,2.89,10.38,10.38,0,0,0,5,1.08,12.86,12.86,0,0,0,2.53-.24,5.23,5.23,0,0,0,2-.84l1.57-8.42h-9.62l3.85-22H319l-8.42,48.23A41,41,0,0,1,299,424.43a50.67,50.67,0,0,1-14.31,1.87,37.47,37.47,0,0,1-14.31-2.53,27.08,27.08,0,0,1-10.17-7.09,29.62,29.62,0,0,1-6-10.89,45.82,45.82,0,0,1-2-13.77,71.17,71.17,0,0,1,3.12-21.23,59,59,0,0,1,8.84-17.74,44.28,44.28,0,0,1,13.59-12.21A34.21,34.21,0,0,1,295,336.33a44,44,0,0,1,9,.84,34.92,34.92,0,0,1,7.1,2.23,23.73,23.73,0,0,1,5.29,3.19,21,21,0,0,1,3.67,3.72Z" transform="translate(178.89 48.67)"/><polygon points="562.56 472.56 537.43 472.56 543.2 439.61 530.57 439.61 524.8 472.56 499.78 472.56 514.57 387.41 539.47 387.41 534.3 417 547.05 417 552.1 387.41 577.36 387.41 562.56 472.56"/><g class="cls-6"><rect class="cls-7" x="192.13" y="117.59" width="320.71" height="334" transform="translate(85.14 411.48) rotate(-48.86)"/></g><polygon points="634.97 408.82 619.82 408.82 608.75 472.56 583.85 472.56 595.04 408.82 579.88 408.82 583.61 387.41 638.7 387.41 634.97 408.82"/><path d="M254,467.48q0,9.27-3.67,15.64a21.45,21.45,0,0,1-10.4,9.26L248,528.7H221.37l-4.58-31h-3.12l-5.41,31H184.2L199,443.55h29.47q12.39,0,18.94,6T254,467.48m-25.38,3.25c0-2.48-.66-4.13-2-4.93a7.38,7.38,0,0,0-3.79-1.2h-3.37l-2.77,15.75h2.65a10.33,10.33,0,0,0,6.44-2.16C227.64,476.74,228.58,474.26,228.58,470.73Z" transform="translate(178.89 48.67)"/><path d="M320.11,495.51a92.68,92.68,0,0,1-3.55,14.07,35,35,0,0,1-6.19,11.24,27.87,27.87,0,0,1-10,7.52,35.68,35.68,0,0,1-14.86,2.77A36.58,36.58,0,0,1,273,529.18a25.08,25.08,0,0,1-9-5.35,22.4,22.4,0,0,1-5.47-8.18,28,28,0,0,1-1.87-10.4,47.29,47.29,0,0,1,.25-4.87c.16-1.65.4-3.31.72-5l9-51.84h25.38l-8.66,50c-.25,1.37-.44,2.63-.61,3.79a23.69,23.69,0,0,0-.24,3.19,8,8,0,0,0,1.15,4.57,4,4,0,0,0,3.55,1.68,5.56,5.56,0,0,0,5.59-3.55,46.18,46.18,0,0,0,2.58-9.68l8.66-50h25.14Z" transform="translate(178.89 48.67)"/><polygon points="566.47 577.38 540.25 577.38 533.15 535.64 532.79 535.64 526.42 577.38 504.05 577.38 518.84 492.22 545.66 492.22 552.4 535.16 552.88 535.16 559.62 492.22 581.27 492.22 566.47 577.38"/><polygon points="401.6 597.03 416.87 597.03 404.85 629.02 387.77 629.02 401.6 597.03"/><g class="cls-8"><rect class="cls-9" x="-1.26" y="64.03" width="546.58" height="544.35" transform="translate(18.75 368.55) rotate(-48.86)"/></g><g class="cls-10"><rect class="cls-11" x="448.63" y="392.76" width="120.68" height="124.5" transform="translate(10.34 587.63) rotate(-48.86)"/></g><g class="cls-12"><rect class="cls-13" x="53.35" y="80.33" width="533.05" height="542.45" transform="translate(23.56 409.83) rotate(-48.86)"/></g><g class="cls-14"><rect class="cls-15" x="141.54" y="509.85" width="251.63" height="249.59" transform="translate(-207.6 467.12) rotate(-48.86)"/></g><g class="cls-16"><rect class="cls-17" x="-17.93" y="185.16" width="580.04" height="579.97" transform="translate(-85.87 416.13) rotate(-48.86)"/></g><g class="cls-18"><rect class="cls-19" x="131.67" y="79.83" width="368.3" height="373.97" transform="translate(85.99 377.79) rotate(-48.86)"/></g><polygon points="354.15 355.99 356.01 345.02 332.44 345.02 362.99 302.08 366.35 282.6 316.2 282.6 312.35 304.73 332.56 304.73 316.92 326.82 332.56 346.38 351.66 356.46 354.15 355.99"/><polygon points="422.28 282.6 397.69 282.6 423.28 301.75 422.28 282.6"/><polygon points="355.29 367.75 367.97 367.75 359.02 358.87 355.29 367.75"/><path d="M251.73,319.08h23.09c.71,0-20.81-13.1-20.81-13.1Z" transform="translate(178.89 48.67)"/><polygon points="541.27 336.12 531.65 336.12 532.72 332.86 514.6 321.12 494.97 367.75 521.19 367.75 525.64 355.25 540.91 355.25 540.91 367.75 566.41 367.75 565.23 345.15 541.27 336.09 541.27 336.12"/><path d="M177.53,338.74h-4.92c1.75,2.05,3.78,4.4,6,7Z" transform="translate(178.89 48.67)"/><path d="M165,382.16l0,.3,7,41.43h26.22l4.21-24.2c-10.89-9.7-34.23-31.09-53.26-52.75l-8.57,49.35,19.5,15,4.45-29.13Z" transform="translate(178.89 48.67)"/><polygon points="409.88 472.56 392.24 459.52 389.97 472.56 409.88 472.56"/><path d="M284.69,426.3a59.53,59.53,0,0,0,6.54-.37L252.4,396.29q.16,1.95.48,3.81l29.87,26.12c.65,0,1.27.08,1.94.08" transform="translate(178.89 48.67)"/><path d="M310.55,419.08,319,370.85H287.22l-3.85,22H293l-1.57,8.42a5.23,5.23,0,0,1-2,.84c-.22.05-.46.07-.69.1l21.55,17,.31-.19" transform="translate(178.89 48.67)"/><path d="M276.39,388.89a44.77,44.77,0,0,1,1.08-9.44,36.37,36.37,0,0,1,3.25-9.14,21.73,21.73,0,0,1,5.47-6.86,11.91,11.91,0,0,1,7.76-2.7,12.1,12.1,0,0,1,6,1.26,15.7,15.7,0,0,1,4,3.31l16.12-19a21,21,0,0,0-3.67-3.72,23.5,23.5,0,0,0-5.29-3.19,35.13,35.13,0,0,0-7.1-2.23,44,44,0,0,0-9-.84,34.24,34.24,0,0,0-17.26,4.51,44.28,44.28,0,0,0-13.59,12.21,59,59,0,0,0-8.84,17.74c-.42,1.37-.8,2.76-1.13,4.16l22.5,17.8a25.23,25.23,0,0,1-.32-3.86" transform="translate(178.89 48.67)"/><polygon points="583.85 472.56 608.75 472.56 610.06 465.01 587.3 452.88 583.85 472.56"/><polygon points="483 492.22 482.82 493.28 504.85 510.9 508.14 492.22 483 492.22"/><path d="M295.45,493.58a46.18,46.18,0,0,1-2.58,9.68,5.55,5.55,0,0,1-5.6,3.55,4,4,0,0,1-3.54-1.68,8,8,0,0,1-1.15-4.57,23.57,23.57,0,0,1,.24-3.19c.16-1.16.37-2.42.61-3.79l3.16-18.29L263.72,460.7l-6,34.69c-.32,1.68-.57,3.35-.72,5a47.29,47.29,0,0,0-.25,4.87,28,28,0,0,0,1.87,10.4,22.4,22.4,0,0,0,5.47,8.18,25.24,25.24,0,0,0,9,5.36,36.84,36.84,0,0,0,12.45,1.92,35.6,35.6,0,0,0,14.85-2.77,28,28,0,0,0,10.05-7.51,35.15,35.15,0,0,0,6.19-11.25c.45-1.32.87-2.69,1.27-4.07l-21.46-17.19Z" transform="translate(178.89 48.67)"/><polygon points="552.88 535.16 552.4 535.16 551.13 527.07 523.26 517.09 514.42 517.67 508.14 553.83 529.37 558.1 532.79 535.64 533.15 535.64 538.43 566.68 549.73 577.37 566.47 577.37 572.17 544.57 553.79 529.37 552.88 535.16"/><polygon points="581.27 492.22 564.32 492.22 579.49 502.45 581.27 492.22"/><polygon points="504.05 577.38 523.27 577.38 506.58 562.79 504.05 577.38"/><polygon points="387.76 629.02 404.84 629.02 411.58 611.11 400.88 598.7 387.76 629.02"/><path d="M219.44,464.6h3.37a7.38,7.38,0,0,1,3.79,1.2c1.32.8,2,2.45,2,4.93a11.7,11.7,0,0,1-1,5l16.21,14.42a21.48,21.48,0,0,0,6.46-7q3.68-6.37,3.67-15.64,0-11.89-6.56-17.92t-18.94-6H199l-1,5.8,20.87,18.57Z" transform="translate(178.89 48.67)"/><path d="M459.63,273.5l0-.07-23-6.83a6,6,0,0,1-1.6,2,10.26,10.26,0,0,1-6.43,2.17H426l1.22-6.94L404.33,257,400,281.9l26.13,6.15,26.54,10.23-3.44-15.52a21.55,21.55,0,0,0,10.4-9.26" transform="translate(178.89 48.67)"/><polygon points="559.62 492.22 553.79 529.37 572.17 544.57 579.49 502.45 559.62 492.22"/><polygon points="402.93 397.97 397.37 429.99 419.98 446.59 426.52 408.97 402.93 397.97"/><polygon points="361.35 353.34 374.5 322.11 391.97 336.12 401.59 336.12 426.14 356.46 426.73 367.75 401.23 367.75 401.23 355.24 385.96 355.24 382.5 364.97 361.35 353.34"/><polygon points="443.51 504.19 445.6 492.22 470.98 492.22 466.16 520.02 443.51 504.19"/><polygon points="381.73 446.59 387.53 413.21 367.97 417.29 366.35 434.09 381.73 446.59"/><path d="M324,278.43a87.8,87.8,0,0,0,.72-10.83c0-.13,0-.25,0-.37l-59.16-27.78L261.31,264l23.28,12,3.47-20.08h2a7.57,7.57,0,0,1,4.39,1.2,8.12,8.12,0,0,1,2.71,3.19,15.16,15.16,0,0,1,1.32,4.51,36.48,36.48,0,0,1,.36,5.17,52,52,0,0,1-.78,8.42,39.33,39.33,0,0,1-.92,4.1l22.62,11.69c.6-1.42,1.16-2.85,1.63-4.31A60.71,60.71,0,0,0,324,278.43" transform="translate(178.89 48.67)"/><path d="M317.34,243.31a25.79,25.79,0,0,0-10.22-6.92,42.71,42.71,0,0,0-15.45-2.46h-10l41.73,21.84c-.14-.61-.27-1.23-.43-1.82a26.92,26.92,0,0,0-5.66-10.64" transform="translate(178.89 48.67)"/><polygon points="552.1 387.41 549.4 403.2 572.3 416.5 577.36 387.41 552.1 387.41"/><polygon points="539.47 387.41 522.21 387.41 537.88 396.51 539.47 387.41"/><polygon points="532.7 420.87 509.87 414.49 503.83 449.23 525.89 466.29 530.57 439.61 543.2 439.61 537.43 472.56 562.56 472.56 568.11 440.64 532.7 420.87"/><text class="cls-20" transform="translate(412.58 683.58) scale(1 1.01)">20</text><g class="cls-21"><rect class="cls-22" x="-80.5" y="174.74" width="502.3" height="489.46" transform="translate(-78.64 320.68) rotate(-48.86)"/></g><path class="cls-23" d="M321.91,193.88h5l-.34,1.47c-1.3,6.25-3.3,9.54-6.94,9.54-4.25,0-4.08-4-1.39-16.48,2.6-12.14,4.08-16.65,8.41-16.65,4,0,3.3,4.69,2.69,7.63h10.32c1.13-5.2,2.6-14.74-11.27-14.74-15.18,0-18.3,9.71-21.42,24.63-3,14.22-2.95,22.72,8.5,22.72,4.16,0,8.41-1.12,10.92-5.2h.09l-.69,4.34h7.37l5.2-24.46h-15Z" transform="translate(178.89 48.67)"/><polygon class="cls-23" points="634.01 214.28 623.26 246.71 623.17 246.71 624.91 214.28 615.02 214.28 603.4 246.71 603.23 246.71 606.17 214.28 595.42 214.28 593.77 259.89 605.65 259.89 616.93 227.46 617.1 227.46 614.85 259.89 626.73 259.89 644.33 214.28 634.01 214.28"/><polygon class="cls-23" points="672.61 222.95 674.43 214.28 648.06 214.28 638.35 259.89 665.41 259.89 667.32 251.22 650.92 251.22 653.18 240.73 667.84 240.73 669.66 232.06 655 232.06 656.91 222.95 672.61 222.95"/><path class="cls-23" d="M252.19,191.28h0l-.26-.35a21.41,21.41,0,0,1-3-4,16.23,16.23,0,0,1-1-5.55V164.74H231.63v15.7c.09,3.2-.35,5.72,1,10.4,0,.09.08.18.08.35h0c1.39,4.25,3,5.81,5.81,9.11L250.1,212l11.37-11.27-8-8Z" transform="translate(178.89 48.67)"/><path class="cls-23" d="M296.5,180.52v-15.7H280.2v16.66a16.28,16.28,0,0,1-1,5.55,16.67,16.67,0,0,1-3,4l-.26.26-1.39,1.47-8.06,8L277.86,212l11.62-11.7c2.77-3.3,4.33-4.6,5.72-8.85l.09-.26c0-.09.08-.17.08-.35C296.85,186.25,296.5,183.73,296.5,180.52Z" transform="translate(178.89 48.67)"/><polygon class="cls-23" points="444.52 192.25 443.82 192.25 443.82 191.56 443.3 191.56 443.3 192.68 444.52 192.68 444.52 192.25"/><polygon class="cls-23" points="442.61 191.56 442.09 191.56 442.09 192.25 441.39 192.25 441.39 192.68 442.61 192.68 442.61 191.56"/><path class="cls-23" d="M274,151.73c-.17-2.86-4.08-5.2-9.11-5.46v-1.05h.7v-.43h-1.22v16.83h-.69V144.79h-1.21v.52h.69v1c-5,.26-9.11,2.6-9.19,5.46v10.41h20ZM260.25,149c.43,0,.87.52.87,1.22s-.35,1.21-.87,1.21-.87-.52-.87-1.21S259.82,149,260.25,149Zm-5.72,12.67v-8.33l2.69,8.41h-2.69Zm.08-9.46H260l-2.51,8.76Zm3.21,9.46,2.52-8.68,2.86,8.68Zm5.38-1.22-2.69-8.24h2.69ZM267.8,149c.43,0,.86.52.86,1.22s-.34,1.21-.86,1.21-.87-.52-.87-1.21S267.28,149,267.8,149Zm-2.87,3.21h2.61l-2.61,8Zm0,9.46,2.87-8.68,2.51,8.68Zm3.13-9.46h5.37l-2.86,8.76Zm5.46,9.46h-2.69l2.69-8.42Z" transform="translate(178.89 48.67)"/><path class="cls-23" d="M366.23,188.67v-.08c5.2-1.22,8.59-4.51,10.06-11.1,1.3-6.25-.61-11.88-9.71-11.88h-18l-9.72,45.61h10.76l4-18.82h4.07c3.39,0,4.17,1.65,2.43,9.54-1.13,5.21-1.3,7.72-.78,9.28h11.54l.08-.6c-1.38-.61-1.56-1.57.18-10.58C372.3,194,372.91,189.63,366.23,188.67Zm-1-9.8c-.61,2.69-2.43,6-6.77,6h-3.29l2.51-11.71H361C365.19,173.15,366,175.41,365.28,178.87Z" transform="translate(178.89 48.67)"/><path class="cls-23" d="M393.63,165.61,372.3,211.22h11.1l3.47-8.67H397.8l-.18,8.67h11.11l-1.65-45.61ZM398,194.22h-7.8l8.06-20.29h.09Z" transform="translate(178.89 48.67)"/><path class="cls-23" d="M276.21,185.12a10.34,10.34,0,0,0,.43-3.64V164.91H251.58v16.57a15.8,15.8,0,0,0,.26,3.55,6.35,6.35,0,0,0,2.08,3.3l10.23,10.14,10.24-10.14A11.21,11.21,0,0,0,276.21,185.12Zm-3.38-6.94a3.09,3.09,0,0,1-1.56,2.26,3.28,3.28,0,0,1-2.69,0h-.18c0,1-.43,2.6.7,3.29.43.35.95.17,2.17.17v4.17c0,.34-.61.69-1,1,.43.52,1,.78.7,1.47a.59.59,0,0,1-.44.35c-.78.09-.78-.26-1.65-1-.6.61-.78,1.13-1.56,1a.64.64,0,0,1-.43-.52,1.51,1.51,0,0,1,.35-.78c-.44-.09-.44.17-1-.26a.55.55,0,0,1,0-.78c.18-.35.52-.35,1-.35-.26-.26-.52-.52-.34-1a.86.86,0,0,1,.52-.44c.43-.08.95.44.95.44l.61.52v-1.65c-1.13,0-3.47.17-4.17-1.3a20.36,20.36,0,0,1-.26-2.17l-.52.26c-.78.52-.86.69-.86,1.65v2.17a30.78,30.78,0,0,0-2.35,2.51c.35.52,1.13,1.13.7,1.65a.89.89,0,0,1-.52.17c-.7-.08-1-.6-1.48-1.12-.52.43-.95,1.21-1.64,1a.73.73,0,0,1-.44-.44,1.63,1.63,0,0,1,.35-.87c-.78.09-1-.26-1.13-.69s.09-.52.52-.69.26,0,.61,0c-.17-.26-.43-.52-.35-.87.09-.17.18-.43.44-.43.69-.18.69.34,1.3.86l1-.95c.08-1.39,0-2.43.08-4,.26-1,1.31-1.56,2.09-2.43-.87-1-1-1.13-2.09-2.17L258,180.61c.52.61.69.61.78.95s-.09.7-.52.78c-.7.09-1-.52-1.56-1-.7.78-1.13,1.39-1.91.87a1.13,1.13,0,0,1-.18-.78A2.56,2.56,0,0,1,255,181a1.06,1.06,0,0,1-.61-.18.63.63,0,0,1-.34-.69.86.86,0,0,1,.52-.44H255a1.77,1.77,0,0,1-.35-1,.92.92,0,0,1,.52-.43c.44-.17.78.35,1.31.78l3-3a23.75,23.75,0,0,0-2.08-2.17c-.26.26-.52.52-.95.43-.79-.35-.53-1-.53-1.91-.86,0-1.82.18-2-.52a.67.67,0,0,1,.52-.78,5.47,5.47,0,0,0,.61-.08c-.18-.26-.44-.61-.35-1s.35-.26.52-.35c.35-.08.78.35.78.35,0-.26.09-.78.35-.87s.87-.08.95.35v1.48l2.95,2.86c1.56-1.48,3.38-3.3,4.94-4.95h-1.3a1.62,1.62,0,0,1-1.47.7,1.66,1.66,0,0,1-.61-.09c.35-.43.78-.87,1.13-1.3-.69-.17-3,.52-3.64-1.21h3.55a1.41,1.41,0,0,1,1-.26c-.43-.61-.86-1-.6-1.22.52-.35.6.35,1.3,1,.08.09.08.18.17.18h.61c-.44-.61-1-1-.7-1.22.44-.26.7.44,1.31,1.13,0,.09.08.09.17.17.69,0,1.82-.08,2.08.78h-1a3.7,3.7,0,0,1,1.21,3.91c-.69,1.56-2.16,2.25-3.21,3.64A2.47,2.47,0,0,0,265,177l.43.6,2.17,2.17a1.77,1.77,0,0,0,1.13.09,2.05,2.05,0,0,0,.95-1l.09-.78V171.5a3.17,3.17,0,0,1,2.17-2.6c.26-.09,1-.26.78.43Zm-13.45-9.54h1.74l-1,.87Z" transform="translate(178.89 48.67)"/><path class="cls-23" d="M263.81,167c0,.09-.18,0-.26.18.08,0,.34.17.43,0S263.89,167,263.81,167Z" transform="translate(178.89 48.67)"/><g class="cls-24"><rect class="cls-25" x="208.97" y="68.29" width="346.32" height="369.57" transform="translate(121.59 432.03) rotate(-50.03)"/></g></svg>